<?xml version="1.0" encoding="UTF-8"?>
<!DOCTYPE svg PUBLIC "-//W3C//DTD SVG 1.1//EN" "http://www.w3.org/Graphics/SVG/1.1/DTD/svg11.dtd">
<svg version="1.1" xmlns="http://www.w3.org/2000/svg" xmlns:xlink="http://www.w3.org/1999/xlink" x="0" y="0" width="800" height="748.148" viewBox="0, 0, 800, 748.148">
  <defs>
    <clipPath id="Clip_1">
      <path d="M87.758,261.901 L680.988,261.901 L680.988,550.51 L87.758,550.51 z"/>
    </clipPath>
    <clipPath id="Clip_2">
      <path d="M313.481,431.215 L661.67,431.215 L661.67,529.124 L313.481,529.124 z"/>
    </clipPath>
    <clipPath id="Clip_3">
      <path d="M362.902,421.253 L531.365,421.253 L531.365,507.166 L362.902,507.166 z"/>
    </clipPath>
    <clipPath id="Clip_4">
      <path d="M443.094,293.496 L475.278,293.496 L475.278,391.784 L443.094,391.784 z"/>
    </clipPath>
    <clipPath id="Clip_5">
      <path d="M477.299,328.825 L508.281,328.825 L508.281,394.353 L477.299,394.353 z"/>
    </clipPath>
    <clipPath id="Clip_6">
      <path d="M324.548,517.048 L377.192,517.048 L377.192,694.784 L324.548,694.784 z"/>
    </clipPath>
    <clipPath id="Clip_7">
      <path d="M317.386,500.309 L358.116,500.309 L358.116,528.514 L317.386,528.514 z"/>
    </clipPath>
    <clipPath id="Clip_8">
      <path d="M434.195,482.525 L515.283,482.525 L515.283,507.325 L434.195,507.325 z"/>
    </clipPath>
    <clipPath id="Clip_9">
      <path d="M548.311,460.671 L613.204,460.671 L613.204,495.333 L548.311,495.333 z"/>
    </clipPath>
    <clipPath id="Clip_10">
      <path d="M55.267,148.032 L198.432,148.032 L198.432,320.224 L55.267,320.224 z"/>
    </clipPath>
    <clipPath id="Clip_11">
      <path d="M309.49,130.309 L348.929,130.309 L348.929,225.077 L309.49,225.077 z"/>
    </clipPath>
    <clipPath id="Clip_12">
      <path d="M336.624,291.879 L478.701,291.879 L478.701,373.441 L336.624,373.441 z"/>
    </clipPath>
    <clipPath id="Clip_13">
      <path d="M183.515,220.017 L447.672,220.017 L447.672,385.261 L183.515,385.261 z"/>
    </clipPath>
    <clipPath id="Clip_14">
      <path d="M207.035,244.273 L447.731,244.273 L447.731,379.189 L207.035,379.189 z"/>
    </clipPath>
    <clipPath id="Clip_15">
      <path d="M291.143,265.939 L428.94,265.939 L428.94,372.389 L291.143,372.389 z"/>
    </clipPath>
    <clipPath id="Clip_16">
      <path d="M361.945,331.465 L401.558,331.465 L401.558,366.474 L361.945,366.474 z"/>
    </clipPath>
    <clipPath id="Clip_17">
      <path d="M507.583,348.576 L525.528,348.576 L525.528,418.138 L507.583,418.138 z"/>
    </clipPath>
    <clipPath id="Clip_18">
      <path d="M116.655,330.946 L307.623,330.946 L307.623,456.667 L116.655,456.667 z"/>
    </clipPath>
    <clipPath id="Clip_19">
      <path d="M157.524,350.88 L241.06,350.88 L241.06,437.38 L157.524,437.38 z"/>
    </clipPath>
    <clipPath id="Clip_20">
      <path d="M182.972,337.479 L259.647,337.479 L259.647,453.862 L182.972,453.862 z"/>
    </clipPath>
    <clipPath id="Clip_21">
      <path d="M208.182,380.138 L309.983,380.138 L309.983,482.533 L208.182,482.533 z"/>
    </clipPath>
    <clipPath id="Clip_22">
      <path d="M410.694,106.21 L537.38,106.21 L537.38,284.643 L410.694,284.643 z"/>
    </clipPath>
    <clipPath id="Clip_23">
      <path d="M514.677,181.848 L658.889,181.848 L658.889,334.849 L514.677,334.849 z"/>
    </clipPath>
  </defs>
  <g id="Artwork">
    <path d="M590.951,606.035 C578.742,639.485 570.053,668.965 554.884,692.029 C533.407,724.792 498.927,744.639 423.082,744.639 C422.202,744.639 421.323,744.639 420.443,744.596 C419.563,744.639 418.683,744.639 417.804,744.639 C381.351,744.639 354.467,740.047 333.976,731.658 C313.336,723.205 299.197,710.868 288.341,695.462 C271.734,671.904 262.765,641.179 249.956,606.035 z" fill="#151314"/>
    <path d="M420.443,742.185 L420.565,742.19 C421.405,742.234 422.296,742.225 423.081,742.232 C490.381,742.232 529.196,726.823 552.871,690.711 C564.923,672.384 572.775,650.115 581.867,624.33 C583.694,619.149 585.563,613.85 587.517,608.443 L253.391,608.443 C255.314,613.775 257.157,618.998 258.958,624.109 C268.608,651.476 276.939,675.111 290.307,694.075 C301.862,710.471 316.027,721.705 334.89,729.43 C355.927,738.045 383.047,742.232 417.803,742.232 C418.598,742.23 419.482,742.234 420.321,742.19 z M423.081,747.047 C422.202,747.047 421.323,747.047 420.443,747.004 C419.564,747.047 418.683,747.047 417.803,747.047 C382.41,747.047 354.693,742.742 333.066,733.887 C313.314,725.798 298.479,714.028 286.372,696.848 C272.621,677.339 264.186,653.414 254.419,625.71 C252.258,619.586 250.041,613.298 247.695,606.861 L246.518,603.629 L594.392,603.629 L593.212,606.861 C590.836,613.375 588.591,619.737 586.407,625.931 C577.211,652.013 569.268,674.537 556.895,693.353 C532.224,730.989 492.205,747.047 423.081,747.047" fill="#151314"/>
    <path d="M789.372,386.244 C785.682,399.632 781.584,412.763 777.057,425.615 C733.996,548.899 655.146,645.557 554.884,692.029 C512.638,711.619 466.572,722.303 417.804,722.303 C415.637,722.303 413.491,722.282 411.324,722.239 C367.855,721.402 326.596,712.048 288.341,695.463 C173.918,645.814 86.314,531.434 46.235,386.244 z" fill="#232122"/>
    <path d="M49.405,388.652 C90.272,533.854 177.582,644.779 289.299,693.254 C328.101,710.076 369.173,719.021 411.372,719.832 C460.803,720.786 508.914,710.69 553.87,689.845 C652.621,644.074 731.077,549.954 774.785,424.821 C778.904,413.128 782.738,400.977 786.203,388.652 z M417.803,724.71 C415.619,724.71 413.462,724.688 411.278,724.646 C368.449,723.821 326.766,714.745 287.383,697.669 C173.541,648.274 84.801,534.998 43.915,386.884 L43.074,383.838 L792.531,383.838 L791.692,386.884 C787.98,400.359 783.819,413.659 779.329,426.415 C735.189,552.782 655.837,647.889 555.896,694.213 C512.254,714.448 465.794,724.71 417.803,724.71" fill="#151314"/>
    <path d="M777.057,425.615 C733.995,548.899 655.146,645.557 554.884,692.029 C533.407,724.792 498.928,744.639 423.082,744.639 C422.202,744.639 421.322,744.639 420.443,744.596 C419.563,744.639 418.684,744.639 417.804,744.639 C381.351,744.639 354.467,740.047 333.977,731.658 C362.834,731.079 388.495,727.71 411.324,722.239 C497.576,701.556 543.298,650.77 567.35,606.035 C590.393,563.231 593.633,525.963 593.633,525.963 C675.036,525.963 749.079,455.696 777.057,425.615" fill="#141213"/>
    <path d="M796.353,379.426 C796.353,493.164 626.876,585.367 417.815,585.367 C208.754,585.367 39.277,493.164 39.277,379.426 C39.277,265.689 208.754,173.486 417.815,173.486 C626.876,173.486 796.353,265.689 796.353,379.426" fill="#EB2027"/>
    <path d="M417.815,175.892 C210.415,175.892 41.684,267.198 41.684,379.425 C41.684,491.653 210.415,582.959 417.815,582.959 C625.216,582.959 793.946,491.653 793.946,379.425 C793.946,267.198 625.216,175.892 417.815,175.892 M417.815,587.773 C207.761,587.773 36.87,494.309 36.87,379.425 C36.87,264.541 207.761,171.077 417.815,171.077 C627.87,171.077 798.76,264.541 798.76,379.425 C798.76,494.309 627.87,587.773 417.815,587.773" fill="#151314"/>
    <path d="M773.411,366.945 C773.411,473.789 614.205,560.404 417.815,560.404 C221.425,560.404 62.219,473.789 62.219,366.945 C62.219,260.101 221.425,173.486 417.815,173.486 C614.205,173.486 773.411,260.101 773.411,366.945" fill="#191718"/>
    <path d="M417.815,174.688 C222.404,174.688 63.423,260.935 63.423,366.945 C63.423,472.955 222.404,559.2 417.815,559.2 C613.227,559.2 772.206,472.955 772.206,366.945 C772.206,260.935 613.227,174.688 417.815,174.688 M417.815,561.607 C221.075,561.607 61.016,474.281 61.016,366.945 C61.016,259.607 221.075,172.281 417.815,172.281 C614.555,172.281 774.613,259.607 774.613,366.945 C774.613,474.281 614.555,561.607 417.815,561.607" fill="#221F1F"/>
    <path d="M143.034,432.348 C143.034,432.348 169.176,454.307 176.496,476.267 C183.816,498.226 216.232,526.46 273.745,516.003 C331.258,505.546 351.126,551.556 423.279,540.054 C495.431,528.551 474.517,518.094 537.259,522.277 C600,526.46 676.029,496.404 671.999,437.188 C667.97,377.972 555.036,271.312 555.036,271.312 L442.101,261.9 L143.034,432.348" fill="#E69E6F"/>
    <g clip-path="url(#Clip_1)" opacity="0.5">
      <path d="M680.829,442.569 C676.676,381.535 560.275,271.6 560.275,271.6 L443.873,261.9 L182.491,410.87 C151.57,364.665 102.168,311.307 102.047,311.177 C102.675,311.854 95.193,329.323 94.741,330.825 C90.094,346.237 87.34,362.465 87.81,378.596 C88.385,398.289 93.893,417.624 105.785,433.534 C117.659,449.419 135.812,456.761 151.882,467.331 C165.659,476.393 168.606,484.654 177.744,496.833 C198.753,524.834 238.24,529.641 270.349,523.804 C329.628,513.026 350.106,560.448 424.473,548.593 C498.841,536.737 477.285,525.959 541.952,530.27 C606.62,534.581 684.983,503.603 680.829,442.569" fill="#141213"/>
    </g>
    <path d="M671.999,437.188 C667.97,377.972 555.036,271.312 555.036,271.312 L442.101,261.9 L188.504,406.433 C158.503,361.604 110.573,309.835 110.456,309.709 C111.065,310.367 103.807,327.314 103.367,328.772 C98.859,343.725 96.187,359.47 96.643,375.12 C97.201,394.227 102.545,412.986 114.083,428.422 C125.603,443.833 143.215,450.957 158.807,461.212 C172.174,470.004 175.033,478.019 183.899,489.836 C204.281,517.002 242.593,521.667 273.745,516.003 C331.258,505.546 351.126,551.556 423.279,540.054 C495.431,528.551 474.517,518.094 537.259,522.277 C600,526.459 676.029,496.404 671.999,437.188" fill="#D96D27"/>
    <g clip-path="url(#Clip_2)" opacity="0.5">
      <path d="M313.481,500.317 C313.481,500.317 328.818,535.174 385.982,528.203 C443.147,521.231 434.781,514.26 468.243,515.654 C501.705,517.048 504.893,523.271 536.562,511.471 C555.516,504.409 636.764,541.217 660.713,457.233 C682.841,379.641 313.481,500.317 313.481,500.317" fill="#924F36"/>
    </g>
    <path d="M407.808,249.029 L567.338,287.366 L587.125,446.895 L520.345,496.362 L423.885,505.019 L336.081,503.782 L287.852,428.345 z" fill="#F9D55A"/>
    <path d="M336.747,502.589 L423.901,503.816 L519.902,495.193 L585.843,446.345 L566.247,288.341 L408.342,250.394 L289.29,428.359 z M423.993,506.218 L335.416,504.977 L286.412,428.331 L286.849,427.675 L407.274,247.663 L408.09,247.858 L568.428,286.389 L568.532,287.217 L588.405,447.445 L587.841,447.861 L520.79,497.53 z" fill="#764D28"/>
    <g clip-path="url(#Clip_3)" opacity="0.35">
      <path d="M362.902,454.225 C362.902,454.225 374.875,464.021 385.76,464.021 C396.644,464.021 397.732,473.817 407.528,473.817 C417.324,473.817 400.998,489.6 441.27,494.497 C441.27,494.497 444.535,491.776 454.875,497.763 C465.215,503.749 500.045,520.076 514.739,487.423 C514.739,487.423 513.651,475.994 521.814,466.198 C529.977,456.402 538.685,453.137 521.27,430.28 C503.855,407.423 369.977,435.178 369.977,435.178 z" fill="#924F36"/>
    </g>
    <path d="M483.002,398.175 C471.445,381.666 478.695,371.303 487.873,358.186 C491.274,353.327 495.127,347.817 498.526,341.303 C510.256,318.823 489.466,287.614 489.255,287.301 L493.241,284.603 C494.17,285.973 515.858,318.494 502.795,343.532 C499.253,350.321 495.303,355.967 491.817,360.946 C482.778,373.866 477.322,381.666 486.946,395.415 z" fill="#764D28"/>
    <path d="M446.403,404.449 C434.846,387.94 442.096,377.58 451.274,364.463 C454.675,359.601 458.528,354.091 461.927,347.577 C473.657,325.097 452.867,293.888 452.656,293.576 L456.643,290.877 C457.571,292.248 479.259,324.768 466.196,349.806 C462.654,356.595 458.702,362.241 455.218,367.223 C446.179,380.14 440.721,387.94 450.347,401.69 z" fill="#764D28"/>
    <path d="M513.388,423.354 C500.771,406.856 502.262,380.469 517.37,352.77 C529.138,331.193 517.511,310.36 517.393,310.151 L521.573,307.763 C522.114,308.708 534.639,331.162 521.596,355.074 C507.424,381.054 505.785,405.488 517.21,420.43 z" fill="#764D28"/>
    <path d="M508.197,472.391 L507.76,467.595 C516.552,466.796 522.986,463.742 527.433,458.263 C537.76,445.531 535.962,422.073 532.777,394.985 C528.383,357.632 563.647,350.577 564.002,350.511 L564.893,355.241 C563.618,355.485 533.696,361.586 537.558,394.421 C540.875,422.614 542.682,447.104 531.171,461.295 C525.938,467.746 518.209,471.479 508.197,472.391" fill="#764D28"/>
    <path d="M534.902,486.909 L533.341,482.353 C567.714,470.569 559.011,389.515 558.917,388.697 L563.703,388.161 C564.096,391.654 572.892,473.884 534.902,486.909" fill="#764D28"/>
    <g clip-path="url(#Clip_4)" opacity="0.35">
      <path d="M469.638,311.396 C469.638,311.396 480.792,337.887 471.729,348.344 C462.666,358.801 444.541,383.897 443.844,390.171 C443.147,396.445 441.055,383.2 449.421,371.349 C457.786,359.498 478.003,336.493 462.666,305.819 C447.329,275.146 469.638,311.396 469.638,311.396" fill="#924F36"/>
    </g>
    <g clip-path="url(#Clip_5)" opacity="0.35">
      <path d="M507.979,329.521 C507.979,329.521 511.465,342.07 494.734,360.892 C478.003,379.714 484.974,394.354 484.974,394.354 L477.306,392.263 C477.306,392.263 476.609,371.349 489.157,360.195 C501.705,349.041 504.494,328.824 504.494,328.824 L507.979,329.521" fill="#924F36"/>
    </g>
    <g clip-path="url(#Clip_6)" opacity="0.75">
      <path d="M375.944,651.939 C367.453,691.515 344.843,698.87 332.123,693 C319.402,687.129 325.03,668.066 332.123,660.745 C339.182,653.389 347.673,640.198 336.352,585.978 C331.147,561.045 332.806,544.445 336.157,533.817 C337.49,529.532 339.084,526.225 340.646,523.729 C343.574,518.904 346.242,517.049 346.242,517.049 L348.974,517.69 L364.623,521.468 C363.094,525.112 361.955,528.79 361.174,532.468 C352.26,573.157 383.719,615.635 375.944,651.939" fill="#151314"/>
    </g>
    <g opacity="0.75">
      <path d="M352.748,520.543 C352.748,520.543 351.284,521.747 348.974,524.025 C347.218,525.749 344.973,528.124 342.501,531.084 C340.451,533.524 338.271,536.354 336.157,539.575 C328.902,550.311 322.07,565.146 322.07,582.583 C322.07,600.801 323.208,619.703 318.166,637.433 C314.099,651.812 304.73,663.849 288.692,664.76 C284.267,664.988 279.452,664.142 276.329,660.954 C270.994,655.521 273.109,646.184 277.533,639.97 C281.99,633.789 288.366,628.974 291.782,622.175 C297.508,610.789 293.604,597.873 292.335,585.966 C291.099,574.645 292.498,562.933 295.751,552.035 C300.371,536.549 309.87,522.072 323.892,514.72 C328.414,512.378 333.391,510.751 338.824,510.068 z" fill="#151314"/>
    </g>
    <path d="M369.437,643.711 C360.946,681.872 338.336,688.964 325.616,683.304 C312.896,677.643 318.524,659.262 325.616,652.203 C332.676,645.11 341.167,632.39 329.845,580.11 C324.64,556.069 326.299,540.063 329.65,529.815 C330.984,525.684 332.578,522.495 334.139,520.088 C337.067,515.436 339.735,513.646 339.735,513.646 L342.468,514.265 L358.116,517.908 C356.587,521.422 355.448,524.968 354.668,528.514 C345.754,567.748 377.213,608.706 369.437,643.711" fill="#F9D55A"/>
    <path d="M340.343,516.251 C339.457,517.051 337.87,518.68 336.178,521.369 C334.488,523.974 333.07,527.055 331.942,530.553 C327.804,543.21 327.892,559.708 332.198,579.6 C343.047,629.697 336.265,644.916 327.323,653.9 C323.152,658.052 319.438,666.733 320.691,673.536 C321.349,677.107 323.336,679.653 326.594,681.103 C331.857,683.447 338.28,683.066 344.229,680.073 C354.869,674.714 362.986,661.615 367.086,643.19 C370.72,626.838 365.44,609.038 359.852,590.192 C353.823,569.851 347.584,548.817 352.318,527.979 C352.943,525.159 353.783,522.352 354.822,519.613 z M333.971,687.439 C330.712,687.439 327.544,686.797 324.638,685.504 C319.908,683.397 316.906,679.561 315.957,674.408 C314.398,665.952 318.78,655.609 323.919,650.496 C328.9,645.492 339.281,635.061 327.492,580.62 C323.002,559.881 322.96,542.535 327.363,529.068 C328.618,525.175 330.219,521.71 332.12,518.778 C335.212,513.863 338.077,511.86 338.395,511.646 L339.255,511.07 L361.474,516.219 L360.323,518.87 C358.893,522.157 357.781,525.575 357.017,529.033 C352.558,548.657 358.614,569.075 364.469,588.824 C370.238,608.284 375.69,626.664 371.787,644.234 C366.122,669.693 354.852,680.114 346.394,684.373 C342.351,686.411 338.089,687.439 333.971,687.439" fill="#764D28"/>
    <path d="M346.242,510.784 C346.242,510.784 344.778,511.987 342.468,514.265 C340.711,515.989 338.466,518.364 335.994,521.324 C333.945,523.764 331.765,526.594 329.65,529.815 C322.395,540.551 315.563,555.386 315.563,572.823 C315.563,591.042 316.702,609.943 311.66,627.673 C307.593,642.052 298.224,654.09 282.185,655 C277.761,655.228 272.946,654.382 269.823,651.194 C264.487,645.761 266.602,636.424 271.026,630.211 C275.483,624.029 281.86,619.215 285.276,612.415 C291.001,601.029 287.098,588.114 285.829,576.207 C284.593,564.885 285.991,553.174 289.244,542.275 C293.864,526.79 303.364,512.313 317.385,504.96 C321.908,502.618 326.885,500.991 332.318,500.308 z" fill="#F9D55A"/>
    <path d="M331.662,502.829 C327.071,503.51 322.644,504.947 318.493,507.098 C306.262,513.51 296.438,526.585 291.551,542.963 C288.232,554.087 287.08,565.49 288.222,575.947 C288.483,578.391 288.85,580.839 289.238,583.429 C290.742,593.448 292.296,603.81 287.425,613.498 C285.22,617.887 281.922,621.445 278.735,624.887 C276.645,627.141 274.67,629.271 272.98,631.62 C269.111,637.052 267.287,645.176 271.541,649.506 C274.484,652.516 279.409,652.736 282.061,652.596 C299.788,651.592 306.763,636.138 309.344,627.017 C313.509,612.367 313.359,596.603 313.211,581.358 C313.185,578.499 313.157,575.653 313.157,572.822 C313.157,553.896 321.041,538.257 327.656,528.468 C329.565,525.558 331.759,522.627 334.152,519.775 C336.923,516.456 339.288,514.011 340.783,512.547 C341.401,511.938 341.961,511.402 342.45,510.943 z M280.832,657.443 C276.762,657.443 271.701,656.552 268.102,652.878 C261.948,646.613 263.927,636.03 269.066,628.815 C270.939,626.218 273.107,623.876 275.204,621.615 C278.3,618.272 281.224,615.117 283.124,611.335 C287.31,603.011 285.869,593.42 284.478,584.144 C284.099,581.616 283.706,579.005 283.436,576.461 C282.226,565.382 283.436,553.318 286.939,541.586 C292.193,523.971 302.884,509.845 316.269,502.829 C321.222,500.259 326.519,498.611 332.019,497.92 L332.985,497.798 L350.132,510.696 L347.772,512.643 C347.758,512.655 346.347,513.821 344.159,515.979 C342.737,517.373 340.491,519.695 337.842,522.866 C335.564,525.579 333.486,528.36 331.662,531.136 C325.407,540.394 317.971,555.114 317.971,572.822 C317.971,575.639 317.999,578.469 318.025,581.311 C318.176,596.896 318.331,613.016 313.975,628.331 C308.994,645.947 297.456,656.545 282.322,657.403 C281.845,657.429 281.346,657.443 280.832,657.443" fill="#764D28"/>
    <g clip-path="url(#Clip_7)" opacity="0.35">
      <path d="M358.116,517.908 C356.587,521.422 355.448,524.968 354.668,528.514 C348.129,527.928 341.72,525.065 335.994,521.324 C335.376,520.934 334.758,520.511 334.14,520.088 C326.982,515.11 320.996,509.059 317.385,504.96 C321.908,502.618 326.885,500.991 332.318,500.308 L346.242,510.784 C346.242,510.784 344.778,511.987 342.468,514.265 z" fill="#924F36"/>
    </g>
    <path d="M299.887,468.947 C299.887,468.947 322.892,531.688 388.771,521.231 C454.65,510.774 434.781,504.5 480.792,512.866 C526.802,521.231 540.396,499.272 540.396,499.272 C540.396,499.272 563.401,519.14 611.503,505.546 C659.605,491.952 655.422,444.896 634.508,440.713 C613.594,436.53 578.041,426.074 551.899,454.307 C525.756,482.54 502.203,496.585 470.061,491.654 C437.918,486.724 379.36,522.277 327.075,465.81 C274.791,409.343 299.887,468.947 299.887,468.947" fill="#F9D55A"/>
    <path d="M610.851,503.23 C572.847,513.966 550.844,503.204 544.161,498.984 C542.734,498.085 542.006,497.484 541.968,497.45 L540.631,496.597 L539.333,497.137 C539.105,497.359 538.912,497.547 538.756,497.699 C538.749,497.708 538.743,497.719 538.737,497.727 C536.345,500.861 521.325,517.778 481.221,510.499 C451.28,505.054 448.508,505.765 433.101,509.71 C424.713,511.856 412.036,515.101 388.394,518.853 C325.329,528.844 303.062,470.601 302.146,468.116 L302.106,468.015 C296.993,455.865 295.083,445.117 296.853,443.977 C296.88,443.958 297.024,443.879 297.354,443.879 C299.005,443.879 305.331,445.869 325.31,467.445 C363.617,508.813 406.266,501.754 437.412,496.593 C450.034,494.497 460.933,492.696 469.698,494.034 C499.981,498.671 524.311,487.642 553.664,455.943 C576.802,430.959 608.063,437.587 628.753,441.973 C630.599,442.364 632.364,442.739 634.036,443.073 C641.363,444.54 646.55,452.362 646.948,462.542 C647.492,476.451 638.364,495.454 610.851,503.23 M651.761,462.353 C651.274,449.909 644.531,440.262 634.98,438.351 C633.325,438.021 631.579,437.651 629.75,437.263 C607.994,432.652 575.119,425.685 550.133,452.671 C522.013,483.041 498.916,493.642 470.425,489.276 C460.914,487.81 449.657,489.683 436.624,491.841 C404.891,497.105 365.39,503.647 328.84,464.174 C305.054,438.487 298.006,437.494 294.243,439.932 C287.733,444.127 294.442,462.214 297.651,469.843 C298.497,472.057 319.369,524.808 374.423,524.806 C379.081,524.806 383.991,524.427 389.149,523.606 C413.016,519.82 425.82,516.544 434.294,514.372 C449.171,510.563 451.462,509.981 480.362,515.234 C519.462,522.351 536.025,508.169 540.857,502.612 C547.581,507.177 570.815,519.547 612.159,507.862 C642.366,499.325 652.372,478.011 651.761,462.353" fill="#764D28"/>
    <g clip-path="url(#Clip_8)" opacity="0.35">
      <path d="M434.195,492.865 C434.195,492.865 448.345,492.321 454.875,497.763 C461.406,503.205 503.31,522.797 515.283,482.525 z" fill="#924F36"/>
    </g>
    <path d="M540.396,499.272 C540.396,499.272 590.589,450.124 609.411,459.536 C628.234,468.947 601.743,500.666 554.338,487.769" fill="#F9D55A"/>
    <path d="M610.489,457.382 C591.304,447.797 546.836,489.856 539.333,497.137 C539.105,497.359 538.912,497.547 538.756,497.699 C538.747,497.708 538.741,497.716 538.732,497.723 L538.737,497.727 L542.078,500.993 C542.719,500.364 543.416,499.693 544.161,498.984 C546.851,496.43 550.186,493.388 553.93,490.152 C588.933,499.583 612.224,485.659 616.965,473.238 C619.46,466.703 616.978,460.629 610.489,457.382 M558.456,486.322 C587.486,492.988 608.344,482.325 612.467,471.521 C613.603,468.545 613.807,464.424 608.335,461.688 C598.158,456.592 575.483,472.184 558.456,486.322" fill="#764D28"/>
    <path d="M548.311,495.333 C548.311,495.333 592.354,453.76 608.345,461.673 C624.335,469.585 599.071,497.289 558.799,486.445" fill="#F9D55A"/>
    <g clip-path="url(#Clip_9)" opacity="0.35">
      <path d="M548.311,495.333 C548.311,495.333 592.354,453.76 608.345,461.673 C624.335,469.585 599.071,497.289 558.799,486.445" fill="#924F36"/>
    </g>
    <path d="M437.918,271.312 C427.411,277.851 422.27,290.603 421.717,302.803 C421.359,310.058 422.628,317.085 425.361,322.55 C432.681,337.19 422.238,374.83 422.238,374.83 C422.238,374.83 422.205,374.83 422.173,374.862 C420.579,375.936 391.267,395.163 352.748,415.496 C303.104,441.684 238.104,469.662 197.405,462.668 C166.922,457.43 135.854,445.653 120.303,417.123 C103.516,386.347 96.945,341.549 117.798,311.099 C135.561,285.235 166.402,269.717 195.323,259.795 C219.332,251.597 242.918,233.866 257.883,221.081 C275.874,205.693 296.792,193.949 319.597,187.54 C376.757,171.534 396.082,199.154 396.082,199.154 C396.082,199.154 403.141,206.604 411.665,216.754 C427.671,235.851 448.817,264.512 437.918,271.312" fill="#F9D55A"/>
    <path d="M352.363,185.006 C343.385,185.006 332.748,186.358 320.247,189.858 C298.352,196.01 277.896,207.131 259.449,222.91 C243.857,236.231 220.21,253.839 196.101,262.073 C159.382,274.671 134.416,291.154 119.782,312.462 C99.198,342.521 106.718,387.188 122.416,415.97 C135.11,439.262 159.772,453.759 197.812,460.296 C238.264,467.25 303.775,438.608 351.625,413.366 C387.859,394.24 415.53,376.336 420.149,373.313 C421.628,367.651 429.437,336.087 423.208,323.628 C420.316,317.845 418.932,310.407 419.313,302.685 C419.973,288.108 426.454,275.611 436.647,269.269 C437.648,268.644 438.213,267.741 438.419,266.432 C439.609,258.947 429.186,241.403 409.82,218.302 C401.449,208.33 394.406,200.885 394.336,200.81 L394.11,200.535 C393.971,200.34 382.596,185.006 352.363,185.006 M210.96,466.15 C206.063,466.15 201.395,465.797 196.999,465.04 C157.412,458.239 131.634,442.941 118.19,418.274 C101.262,387.242 93.963,341.644 115.812,309.737 C131.054,287.546 156.805,270.465 194.542,257.517 C217.932,249.53 241.047,232.299 256.32,219.249 C275.303,203.015 296.372,191.564 318.947,185.222 C375.471,169.397 396.082,195.095 397.942,197.618 C398.882,198.617 405.615,205.808 413.509,215.206 C434.665,240.446 444.644,257.934 443.175,267.188 C442.75,269.861 441.372,271.993 439.193,273.354 L439.191,273.354 C430.345,278.862 424.71,289.911 424.122,302.911 C423.781,309.831 424.985,316.421 427.514,321.474 C435.161,336.764 424.992,373.899 424.557,375.474 L424.068,377.237 L422.945,377.237 C418.638,380.06 390.603,398.236 353.872,417.625 C310.468,440.522 252.58,466.147 210.96,466.15" fill="#764D28"/>
    <path d="M193.013,290.473 C185.401,297.077 177.788,305.178 171.639,314.742 C168.809,319.134 166.304,323.884 164.287,328.894 C159.635,340.378 157.455,353.424 159.602,367.998 C99.807,351.797 8.044,222.581 4.01,216.497 C-0.057,210.446 18.194,197.237 35.404,189.137 C40.349,186.827 45.327,183.151 49.848,179.084 C55.054,174.465 59.738,169.357 63.252,165.193 C67.351,160.281 69.888,156.702 69.888,156.702 z" fill="#333D26"/>
    <path d="M195.754,289.832 L194.084,288.121 L69.598,152.954 L67.926,155.309 C67.9,155.343 65.385,158.878 61.411,163.641 C58.402,167.204 53.678,172.466 48.239,177.294 C43.341,181.698 38.68,184.949 34.38,186.959 C19.995,193.729 3.509,204.649 1.303,212.632 C0.631,215.065 1.318,216.806 2.003,217.827 C2.694,218.867 96.438,353.231 158.81,370.275 L158.972,370.321 L161.494,371.004 C161.186,369.973 160.953,368.912 160.794,367.825 C155.644,332.627 176.206,306.352 195.754,289.832 M70.14,160.41 C68.974,161.947 67.254,164.154 65.099,166.735 C61.981,170.433 57.088,175.877 51.446,180.885 C46.207,185.595 41.15,189.11 36.423,191.32 C21.065,198.546 7.389,208.682 5.943,213.913 C5.72,214.724 5.921,215.025 6.008,215.154 C6.683,216.172 96.863,345.377 156.763,364.646 C155.503,352.098 157.278,339.785 162.057,327.991 C164.065,323.005 166.608,318.106 169.615,313.437 C174.848,305.299 181.54,297.539 189.526,290.343 z" fill="#232A15"/>
    <g clip-path="url(#Clip_10)" opacity="0.45">
      <path d="M198.432,281.804 C190.819,288.408 183.207,296.508 177.058,306.073 C174.228,310.465 171.723,315.215 169.706,320.225 C128.779,292.669 73.713,207.047 55.267,170.415 C60.472,165.795 65.157,160.688 68.67,156.524 C72.769,151.611 75.307,148.033 75.307,148.033 z" fill="#0D1500"/>
    </g>
    <path d="M285.796,245.383 C275.809,250.621 262.535,256.021 240.186,263.666 C236.021,265.098 231.532,266.594 226.684,268.188 C226.684,268.188 226.099,268.448 225.058,268.969 C220.471,271.214 206.775,278.436 193.013,290.473 C185.401,297.077 177.788,305.178 171.639,314.742 C132.698,283.771 79.713,198.897 63.252,165.193 C55.379,148.992 50.629,137.475 49.621,135.426 C45.554,127.325 65.822,129.342 88.139,113.141 C98.615,105.496 113.97,100.584 127.341,97.493 C133.392,96.094 139.053,95.053 143.64,94.337 C150.504,93.264 155.026,92.841 155.026,92.841 L285.276,243.333 C285.276,243.333 285.471,244.049 285.796,245.383" fill="#333D26"/>
    <path d="M288.135,244.809 C287.928,243.965 287.774,243.361 287.685,243.022 C287.628,242.809 287.597,242.7 287.597,242.7 L287.448,242.15 L156.007,90.331 L154.803,90.444 C154.613,90.461 150.128,90.885 143.27,91.957 C139.515,92.544 133.608,93.572 126.797,95.148 C109.232,99.209 95.749,104.607 86.725,111.192 C76.161,118.86 66.133,122.312 58.811,124.836 C52.515,127.004 48.356,128.434 47.063,131.608 C46.452,133.106 46.589,134.754 47.461,136.489 C47.73,137.036 48.272,138.276 49.074,140.11 C51.267,145.117 55.35,154.441 61.089,166.248 C79.542,204.029 132.161,286.11 169.512,316.117 C169.721,316.289 169.931,316.457 170.142,316.624 L171.399,317.626 C178.147,306.476 187.049,297.189 195.754,289.832 C211.596,276.445 226.772,269.462 227.061,269.329 C259.521,258.662 276.191,251.959 288.28,245.403 z M154.054,95.362 C152.291,95.556 148.687,95.983 144.012,96.714 C140.335,97.288 134.554,98.295 127.883,99.837 C110.953,103.752 98.059,108.882 89.557,115.084 C78.409,123.178 67.988,126.768 60.379,129.386 C56.447,130.741 51.989,132.276 51.521,133.425 C51.477,133.533 51.516,133.837 51.771,134.347 C52.064,134.939 52.638,136.244 53.484,138.178 C55.664,143.157 59.722,152.422 65.416,164.14 C83.415,200.988 135.105,281.599 171.093,311.204 C176.521,303.242 183.355,295.666 191.437,288.656 C205.673,276.201 219.961,268.782 224,266.805 C225.086,266.265 225.704,265.99 225.704,265.99 L225.932,265.9 C230.767,264.311 235.248,262.818 239.402,261.392 C259.668,254.457 272.848,249.247 282.823,244.205 z" fill="#232A15"/>
    <g opacity="0.45">
      <path d="M293.382,241.59 C283.394,246.828 270.121,252.228 247.771,259.873 C243.607,261.305 239.118,262.801 234.27,264.395 C234.27,264.395 233.685,264.656 232.644,265.176 C219.501,246.242 148.59,144.028 134.927,93.7 C140.978,92.301 146.639,91.26 151.226,90.544 C158.09,89.471 162.612,89.048 162.612,89.048 L292.861,239.541 C292.861,239.541 293.056,240.256 293.382,241.59" fill="#0D1500"/>
    </g>
    <path d="M345.916,207.645 C340.418,209.369 334.79,212.005 329.162,215.876 C308.634,229.963 300.956,237.445 285.796,245.383 C275.809,250.621 262.535,256.021 240.186,263.666 C229.385,248.116 158.963,147.007 143.64,94.337 C141.428,86.887 139.899,79.763 139.215,73.223 C138.76,68.897 140.582,64.668 143.868,61.804 C153.692,53.346 177.571,35.258 213.813,23.937 C262.449,8.712 274.616,4.677 274.616,4.677 C274.616,4.677 296.933,-0.398 293.875,7.703 C290.947,15.511 318.394,158.684 345.916,207.645" fill="#333D26"/>
    <path d="M317.727,137.873 C301.367,80.011 289.213,13.283 291.621,6.857 C291.753,6.512 291.761,6.32 291.754,6.273 C290.711,4.999 282.629,5.329 275.149,7.024 C275.185,7.024 262.504,11.217 214.531,26.235 C179.492,37.181 156.203,54.362 145.439,63.63 C142.681,66.03 141.247,69.526 141.608,72.971 C142.258,79.181 143.719,86.138 145.949,93.651 C160.753,144.546 229.522,243.966 241.128,260.8 C261.676,253.725 274.762,248.451 284.677,243.251 C294.199,238.267 300.639,233.524 309.551,226.957 C311.776,225.316 314.134,223.581 316.709,221.716 C319.989,219.342 323.623,216.756 327.799,213.892 C332.442,210.701 337.357,208.146 342.44,206.286 C333.992,190.184 325.397,165.003 317.727,137.873 M348.017,206.466 C347.915,206.284 347.81,206.099 347.712,205.915 C338.315,188.925 328.796,160.442 320.529,130.309 C305.274,74.722 294.273,13.524 296.127,8.552 C297.172,5.788 296.131,4.002 295.416,3.183 C291.672,-1.113 279.249,1.158 273.858,2.394 C273.735,2.432 261.153,6.595 213.096,21.64 C177.228,32.842 153.344,50.472 142.288,59.989 C138.337,63.431 136.294,68.472 136.823,73.471 C137.501,79.975 139.018,87.223 141.331,95.01 C156.053,145.625 222.356,242.076 237.107,263.45 C237.494,264.013 237.862,264.542 238.208,265.039 L238.529,265.503 C263.621,256.986 277.704,251.139 288.279,245.403 C297.073,240.633 303.443,235.941 311.708,229.854 C313.748,228.351 315.898,226.768 318.224,225.077 C321.642,222.595 325.443,219.886 329.839,216.87 C336.258,212.472 342.692,209.691 348.929,208.091 z" fill="#232A15"/>
    <g clip-path="url(#Clip_11)" opacity="0.45">
      <path d="M348.929,208.091 C342.692,209.691 336.258,212.472 329.839,216.87 C325.443,219.886 321.642,222.595 318.224,225.077 C317.691,223.962 317.185,222.84 316.709,221.716 C303.642,190.986 311.016,157.473 317.727,137.873 C318.696,135.045 319.651,132.506 320.529,130.309 C328.796,160.442 338.315,188.925 347.712,205.915 C347.81,206.099 347.915,206.284 348.017,206.466 z" fill="#0D1500"/>
    </g>
    <g clip-path="url(#Clip_12)" opacity="0.35">
      <path d="M353.529,311.587 C353.529,311.587 356.006,322.55 348.338,326.036 C340.669,329.522 333.698,339.281 337.881,349.041 C342.063,358.801 366.463,373.441 366.463,373.441 L403.411,361.589 C403.411,361.589 408.291,346.253 405.502,339.978 C402.713,333.704 414.565,343.464 423.627,343.464 C423.627,343.464 449.421,367.166 463.364,365.772 C477.306,364.378 478.7,352.527 478.7,352.527 L445.206,316.597 C445.206,316.597 429.93,291.17 407.956,301.632 C385.982,312.094 387.302,267.858 353.529,311.587" fill="#924F36"/>
    </g>
    <path d="M439.565,266.866 C439.265,268.396 438.519,269.514 437.282,270.292 C420.373,280.849 416.412,307.341 424.284,323.089 C429.117,332.759 426.03,355.114 421.53,372.799 L421.253,373.839 C406.67,377.139 221.083,418.209 172.069,384.641 C166.621,380.913 163.075,376.336 161.494,371.004 C161.186,369.973 160.953,368.912 160.794,367.825 C157.938,348.299 162.992,331.518 171.399,317.626 C178.147,306.476 187.049,297.189 195.754,289.832 C211.596,276.444 226.772,269.462 227.061,269.329 C231.124,267.994 234.938,266.72 238.529,265.503 C263.621,256.985 277.704,251.139 288.28,245.402 C297.074,240.633 303.444,235.941 311.707,229.854 C316.742,226.143 322.448,221.941 329.84,216.869 C336.258,212.471 342.692,209.691 348.93,208.091 C353.915,206.808 358.773,206.282 363.4,206.282 C384.963,206.282 401.418,217.756 401.662,217.93 C401.872,218.08 402.109,218.143 402.388,218.154 L411.114,217.971 C416.414,224.332 421.073,230.289 424.971,235.678 C438.426,254.329 440.334,262.933 439.565,266.866 M426.921,234.267 C422.901,228.706 418.079,222.554 412.59,215.984 C412.355,215.702 412.012,215.549 411.64,215.552 L402.72,215.739 C399.588,213.652 375.472,198.462 347.712,205.914 C341.421,207.601 334.942,210.454 328.479,214.884 C321.053,219.98 315.329,224.195 310.279,227.915 C302.139,233.911 295.941,238.476 287.685,243.022 C277.067,248.866 263.045,254.674 237.107,263.451 C233.683,264.609 230.05,265.82 226.189,267.09 C225.844,267.247 210.293,274.392 194.084,288.121 C185.317,295.547 176.358,304.902 169.512,316.117 C160.746,330.466 155.44,347.862 158.412,368.173 C158.516,368.884 158.648,369.586 158.81,370.275 C160.318,376.756 164.312,382.248 170.708,386.628 C185.13,396.506 210.989,400.072 240.816,400.072 C316.068,400.072 416.579,377.375 422.44,376.036 C422.551,376.01 422.66,375.969 422.758,375.914 C423.066,375.764 423.306,375.488 423.401,375.141 L423.858,373.404 C426.097,364.614 432.893,334.927 426.438,322.013 C419.168,307.476 422.953,282.073 438.556,272.331 L438.558,272.331 C440.367,271.201 441.5,269.518 441.928,267.329 C443.18,260.929 438.13,249.807 426.921,234.267" fill="#764D28"/>
    <g clip-path="url(#Clip_13)" opacity="0.35">
      <path d="M444.434,265.221 C426.34,276.521 422.926,304.823 430.846,320.664 C437.746,334.463 430.037,367.2 427.96,375.367 C404.551,377.408 284.091,387.687 222.418,384.731 C202.881,383.78 189.222,381.492 186.442,377.233 C174.015,358.012 202.282,295.776 249.804,288.982 C297.327,282.188 295.074,261.842 334.675,233.54 C362.977,213.299 408.071,220.269 431.48,225.901 C437.992,234.913 443.624,243.994 446.159,251.317 C448.447,257.723 448.341,262.757 444.434,265.221" fill="#924F36"/>
    </g>
    <path d="M437.918,271.312 C421.197,281.754 418.041,307.911 425.361,322.55 C431.737,335.303 424.613,365.558 422.693,373.106 C401.059,374.993 289.733,384.492 232.735,381.76 C214.68,380.881 202.057,378.767 199.487,374.83 C188.003,357.067 214.127,299.55 258.046,293.271 C301.965,286.992 299.883,268.188 336.482,242.032 C362.638,223.326 404.312,229.767 425.946,234.972 C431.965,243.301 437.17,251.694 439.512,258.461 C441.627,264.382 441.529,269.034 437.918,271.312" fill="#F9D55A"/>
    <g clip-path="url(#Clip_14)" opacity="0.35">
      <path d="M444.555,261.975 C443.254,262.788 442.017,263.699 440.879,264.675 C440.814,262.853 440.326,260.738 439.512,258.461 C415.634,253.256 376.659,250.035 342.761,271.312 C289.44,304.788 323.924,315.23 245.521,329.87 C199.845,338.394 211.98,361.427 230.068,379.189 C229.059,379.157 228.051,379.092 227.042,379.059 C206.417,359.93 189.825,333.546 240.608,324.047 C323.729,308.529 287.163,297.467 343.672,261.975 C379.62,239.43 420.936,242.846 446.247,248.343 C448.491,254.622 448.394,259.567 444.555,261.975" fill="#924F36"/>
    </g>
    <path d="M383.482,231.908 C367.314,231.908 350.656,234.854 337.882,243.991 C325.205,253.049 317.285,261.161 310.296,268.319 C297.177,281.756 287.696,291.462 258.386,295.654 C232.406,299.368 213.83,321.15 205.109,340.299 C198.811,354.124 197.398,367.166 201.51,373.523 C202.187,374.559 206.463,378.071 232.853,379.355 C286.008,381.913 387.979,373.692 420.775,370.857 C424.994,353.659 427.747,332.709 423.208,323.628 C415.109,307.429 419.212,280.16 436.638,269.273 C438.899,267.844 439.103,264.478 437.247,259.269 C435.288,253.615 431.01,246.168 424.517,237.108 C413.781,234.569 398.851,231.908 383.482,231.908 M256.012,384.651 C247.547,384.651 239.663,384.501 232.62,384.165 C205.236,382.832 199.451,379.179 197.471,376.146 C192.41,368.318 193.661,353.821 200.727,338.303 C209.975,317.995 229.801,294.876 257.705,290.886 C285.394,286.928 293.93,278.188 306.85,264.955 C313.98,257.656 322.059,249.381 335.083,240.075 C361.884,220.902 403.87,227.188 426.51,232.632 L427.375,232.841 L427.898,233.563 C434.959,243.335 439.632,251.445 441.788,257.673 C445.168,267.144 442.249,271.427 439.202,273.347 L439.193,273.354 C424.106,282.774 420.466,307.382 427.514,321.474 C433.974,334.397 427.926,362.302 425.025,373.699 L424.604,375.356 L422.902,375.504 C396.019,377.848 312.969,384.651 256.012,384.651" fill="#764D28"/>
    <path d="M437.918,271.312 C435.804,272.645 433.917,274.207 432.193,275.964 C420.579,288.196 418.952,309.765 425.361,322.55 C431.737,335.303 424.613,365.558 422.693,373.106 C412.315,374.017 381.182,376.684 345.331,378.897 C306.584,381.304 262.34,383.191 232.735,381.76 C213.281,363.704 197.633,338.817 245.521,329.87 C323.924,315.23 289.44,304.788 342.761,271.312 C376.66,250.035 415.634,253.256 439.512,258.461 C441.627,264.382 441.529,269.034 437.918,271.312" fill="#F9D55A"/>
    <path d="M233.732,379.397 C258.476,380.526 295.961,379.552 345.184,376.494 C377.145,374.522 405.648,372.173 420.775,370.857 C424.995,353.659 427.747,332.709 423.208,323.628 C416.602,310.45 417.935,287.485 430.446,274.306 C432.421,272.297 434.435,270.661 436.635,269.276 C438.711,267.964 439.057,265.023 437.665,260.526 C412.319,255.2 375.958,253.314 344.039,273.35 C323.651,286.15 316.345,295.499 310.475,303.012 C300.672,315.555 294.755,323.125 245.963,332.236 C228.743,335.452 218.913,340.89 216.741,348.391 C214.5,356.127 220.375,366.84 233.732,379.397 M256.414,384.665 C247.486,384.665 239.548,384.498 232.62,384.165 L231.741,384.122 L231.097,383.525 C215.647,369.186 209.261,356.915 212.114,347.053 C214.834,337.659 225.925,331.082 245.079,327.502 C292.083,318.727 297.578,311.695 306.681,300.047 C312.783,292.238 320.379,282.523 341.481,269.274 C375.342,248.02 413.755,250.381 440.025,256.107 L441.33,256.394 L441.779,257.651 C445.169,267.144 442.249,271.427 439.203,273.348 C437.322,274.532 435.589,275.94 433.908,277.652 C422.818,289.332 421.637,309.751 427.512,321.472 C433.974,334.397 427.926,362.303 425.025,373.701 L424.604,375.356 L422.902,375.504 C408.264,376.788 378.741,379.247 345.48,381.299 C309.4,383.542 279.579,384.665 256.414,384.665" fill="#764D28"/>
    <path d="M440.879,264.675 C441.041,267.635 440.131,269.913 437.918,271.312 C435.836,272.645 433.949,274.174 432.258,275.898 C433.917,272.613 435.999,269.522 438.504,266.887 C439.252,266.106 440.065,265.39 440.879,264.675" fill="#F9D55A"/>
    <path d="M439.306,267.79 C438.528,268.613 437.783,269.492 437.073,270.426 C437.138,270.383 437.204,270.341 437.27,270.299 C438.245,269.683 438.92,268.853 439.306,267.79 M427.691,282.273 L431.184,275.355 C432.982,271.794 435.152,268.667 437.632,266.058 C438.405,265.249 439.245,264.509 440.084,263.77 L441.946,262.137 L442.08,264.61 C442.273,268.134 441.09,270.731 438.563,272.33 C436.572,273.602 434.738,275.087 433.119,276.742 z" fill="#764D28"/>
    <g clip-path="url(#Clip_15)" opacity="0.35">
      <path d="M422.108,316.044 C428.484,328.796 421.359,359.052 419.44,366.599 C409.062,367.51 377.928,370.178 342.077,372.39 C305.739,350.919 276.85,330.098 298.712,328.601 C344.745,325.445 344.745,308.724 380.303,278.403 C398.456,262.918 416.057,264.349 428.939,269.457 C417.325,281.689 415.699,303.258 422.108,316.044" fill="#924F36"/>
    </g>
    <path d="M414.534,273.604 C403.986,273.604 393.882,277.684 384.338,285.828 C374.632,294.102 367.662,301.284 361.51,307.621 C345.553,324.063 335.919,333.987 302.047,336.31 C298.244,336.569 295.971,337.462 295.648,338.821 C294.927,341.867 300.468,350.965 345.626,377.672 C378.064,375.666 406.898,373.278 421.736,371.983 C426.123,354.423 429.042,332.608 424.284,323.089 C418.079,310.708 419.077,289.445 430.124,276.467 C424.832,274.558 419.632,273.604 414.534,273.604 M345.332,380.1 C345.118,380.1 344.906,380.044 344.721,379.933 C296.533,351.461 292.299,342.518 293.305,338.266 C293.918,335.687 296.723,334.26 301.883,333.908 C334.836,331.648 343.696,322.518 359.784,305.945 C365.971,299.57 372.984,292.344 382.777,283.994 C401.903,267.677 420.446,270.012 432.637,274.845 C433.008,274.993 433.281,275.315 433.368,275.705 C433.455,276.095 433.339,276.502 433.065,276.793 C421.597,288.872 420.38,309.925 426.438,322.013 C432.893,334.925 426.097,364.613 423.859,373.403 C423.734,373.899 423.306,374.261 422.799,374.305 C408.165,375.589 378.654,378.046 345.407,380.098 C345.381,380.1 345.355,380.1 345.332,380.1" fill="#764D28"/>
    <path d="M400.538,359.41 C397.676,365.981 376.92,369.104 362.02,363.736 C353.561,360.711 346.99,354.92 346.665,345.486 C346.665,345.486 345.331,326.194 370.023,326.194 C377.473,326.194 383.621,328.276 388.436,331.464 C399.595,338.881 403.662,352.22 400.538,359.41" fill="#8AC440"/>
    <path d="M370.022,327.399 C362.036,327.399 356.065,329.458 352.274,333.52 C347.462,338.677 347.861,345.335 347.866,345.403 C348.211,355.445 355.974,360.295 362.424,362.603 C376.623,367.716 396.905,364.731 399.437,358.929 C402.411,352.074 398.055,339.303 387.77,332.467 C382.692,329.105 376.721,327.399 370.022,327.399 M379.138,367.697 C373.202,367.697 366.978,366.802 361.611,364.87 C351.503,361.252 345.767,354.383 345.461,345.528 C345.442,345.253 344.996,337.794 350.515,331.879 C354.779,327.309 361.343,324.991 370.022,324.991 C377.203,324.991 383.621,326.832 389.101,330.462 C400.68,338.158 405.006,352.147 401.644,359.888 L401.642,359.888 C399.496,364.818 389.782,367.697 379.138,367.697" fill="#016938"/>
    <path d="M400.538,359.41 C397.708,365.949 377.18,369.072 362.313,363.834 C362.215,363.801 362.117,363.769 362.02,363.736 C360.361,339.142 386.68,331.952 386.68,331.952 L388.436,331.464 C399.595,338.881 403.662,352.22 400.538,359.41" fill="#F9D55A"/>
    <path d="M363.176,362.86 C377.54,367.712 396.929,364.724 399.434,358.931 L399.434,358.929 C402.368,352.178 398.182,339.679 388.219,332.775 L387.001,333.111 C385.974,333.393 362.203,340.194 363.176,362.86 M379.072,367.681 C373.257,367.681 367.173,366.823 361.914,364.971 L361.167,364.707 L360.819,363.816 C359.112,338.534 386.089,330.866 386.362,330.791 L388.645,330.158 L389.101,330.464 C400.68,338.158 405.004,352.145 401.644,359.886 C399.519,364.794 389.747,367.681 379.072,367.681" fill="#016938"/>
    <g clip-path="url(#Clip_16)" opacity="0.35">
      <path d="M400.538,359.41 C397.708,365.949 377.18,369.072 362.313,363.834 C362.215,363.801 362.117,363.769 362.02,363.736 C360.361,339.142 386.68,331.952 386.68,331.952 L388.436,331.464 C399.595,338.881 403.662,352.22 400.538,359.41" fill="#924F36"/>
    </g>
    <path d="M400.538,359.41 C397.708,365.949 377.18,369.072 362.313,363.834 L362.963,356.352 C366.802,361.947 383.199,361.947 388.436,349.032 C393.641,336.149 386.68,331.952 386.68,331.952 L388.436,331.464 C399.595,338.881 403.662,352.22 400.538,359.41" fill="#329F48"/>
    <path d="M363.595,362.998 C377.913,367.655 396.952,364.667 399.434,358.931 L399.434,358.929 C402.164,352.648 398.732,341.397 390.224,334.3 C391.698,337.128 392.601,341.94 389.552,349.484 C386.938,355.93 381.16,360.236 374.096,361.003 C370.153,361.428 366.413,360.631 363.945,358.95 z M379.072,367.681 C373.257,367.681 367.173,366.823 361.914,364.971 L361.035,364.66 L362.053,352.902 L363.954,355.671 C365.461,357.867 369.528,359.063 373.835,358.61 C380.003,357.939 385.046,354.19 387.321,348.581 C392.037,336.91 386.296,333.132 386.049,332.977 L383.741,331.526 L388.645,330.158 L389.101,330.464 C400.68,338.158 405.004,352.145 401.644,359.886 C399.519,364.794 389.747,367.681 379.072,367.681" fill="#016938"/>
    <path d="M380.654,284.901 C379.129,284.901 377.565,284.958 375.962,285.071 C364.495,285.863 358.839,292.953 356.117,298.759 C355.085,300.976 354.453,303.294 354.239,305.644 C354.055,307.537 354.208,309.432 354.693,311.281 C355.981,316.136 359.06,320.158 363.842,323.228 C368.633,326.296 374.956,328.36 382.639,329.359 C396.602,331.228 407.662,325.048 410.796,313.642 C411.47,311.171 411.752,308.562 411.635,305.887 C411.534,304.032 411.275,302.424 410.838,300.969 C407.813,290.858 396.43,284.901 380.654,284.901 M387.509,332.098 C385.828,332.098 384.101,331.982 382.323,331.747 C374.293,330.701 367.636,328.515 362.542,325.254 C357.236,321.848 353.813,317.353 352.365,311.895 C351.808,309.765 351.632,307.589 351.841,305.421 C352.081,302.798 352.786,300.212 353.936,297.741 C356.935,291.345 363.162,283.543 375.795,282.668 C395.177,281.314 409.486,288.054 413.144,300.278 C413.636,301.918 413.93,303.712 414.037,305.764 L414.037,305.774 C414.169,308.701 413.859,311.561 413.118,314.279 C410.051,325.445 400.257,332.098 387.509,332.098" fill="#000000"/>
    <path d="M412.836,305.829 C413.519,321.867 400.961,332.993 382.483,330.553 C367.095,328.536 356.294,322.16 353.529,311.587 C353.008,309.602 352.846,307.553 353.041,305.536 L368.201,300.949 C368.201,300.949 366.119,322.55 387.363,322.55 C408.639,322.55 407.956,301.632 407.956,301.632 L411.99,300.623 C412.478,302.25 412.738,303.974 412.836,305.829" fill="#329F48"/>
    <path d="M354.18,306.448 C354.105,308.07 354.276,309.693 354.693,311.282 C357.21,320.908 367.135,327.328 382.641,329.359 C391.555,330.549 399.418,328.484 404.778,323.581 C409.498,319.262 411.934,312.979 411.635,305.887 C411.56,304.49 411.393,303.235 411.13,302.079 L409.15,302.574 C409.051,305.205 408.297,312.516 403.123,317.861 C399.338,321.773 394.037,323.755 387.363,323.755 C380.824,323.755 375.715,321.782 372.185,317.897 C367.542,312.784 366.94,305.811 366.935,302.589 z M387.455,332.091 C385.786,332.091 384.075,331.978 382.326,331.747 C365.786,329.578 355.146,322.528 352.365,311.893 C351.808,309.765 351.632,307.589 351.841,305.421 L351.919,304.617 L369.566,299.276 L369.399,301.063 C369.389,301.155 368.59,310.372 373.978,316.289 C377.034,319.646 381.536,321.348 387.363,321.348 C393.351,321.348 398.066,319.618 401.379,316.202 C406.952,310.459 406.755,301.756 406.752,301.669 L406.724,300.701 L412.813,299.178 L413.142,300.278 C413.636,301.919 413.929,303.712 414.037,305.764 L414.04,305.776 C414.371,313.595 411.658,320.548 406.402,325.356 C401.578,329.77 394.975,332.091 387.455,332.091" fill="#016938"/>
    <path d="M412.836,305.829 C412.966,308.724 412.641,311.457 411.957,313.962 C403.141,295.516 376.464,296.98 364.72,305.471 C356.359,311.522 359.905,319.525 363.191,324.242 C358.279,321.086 354.928,316.857 353.529,311.587 C353.008,309.602 352.846,307.553 353.041,305.536 C353.269,303.031 353.952,300.558 355.025,298.248 C357.758,292.425 363.647,284.715 375.879,283.869 C393.446,282.633 408.281,288.229 411.99,300.624 C412.478,302.25 412.738,303.974 412.836,305.829" fill="#8AC440"/>
    <path d="M380.654,284.901 C379.129,284.901 377.565,284.958 375.962,285.071 C364.495,285.863 358.839,292.953 356.117,298.759 C355.085,300.976 354.453,303.294 354.239,305.644 C354.055,307.537 354.208,309.432 354.693,311.281 C355.511,314.363 357.05,317.109 359.288,319.49 C357.109,313.543 358.703,308.341 364.016,304.495 C371.874,298.818 384.672,296.709 395.154,299.38 C402.286,301.197 407.85,305.031 411.426,310.55 C411.635,309.027 411.706,307.469 411.635,305.887 C411.534,304.032 411.275,302.424 410.838,300.969 C407.813,290.858 396.43,284.901 380.654,284.901 M363.19,325.445 C362.965,325.445 362.739,325.381 362.539,325.254 C357.236,321.848 353.813,317.353 352.365,311.895 C351.808,309.765 351.632,307.589 351.841,305.421 C352.081,302.798 352.786,300.212 353.936,297.741 C356.935,291.345 363.162,283.543 375.795,282.668 C395.177,281.314 409.486,288.054 413.144,300.278 C413.636,301.919 413.93,303.712 414.037,305.764 L414.037,305.774 C414.169,308.701 413.859,311.561 413.118,314.279 C412.987,314.763 412.566,315.116 412.065,315.16 C411.527,315.193 411.09,314.935 410.871,314.481 C406.999,306.375 399.862,303.063 394.559,301.712 C384.879,299.248 372.631,301.239 365.426,306.446 C359.62,310.647 359.199,316.404 364.178,323.552 C364.507,324.025 364.455,324.662 364.058,325.076 C363.823,325.318 363.508,325.445 363.19,325.445" fill="#016938"/>
    <path d="M427.938,284.369 C441.869,287.573 448.453,300.983 441.992,316.271 C436.623,329.005 428.597,336.772 418.866,336.647 C417.039,336.625 415.241,336.28 413.555,335.636 L413.2,321.536 C413.2,321.536 431.254,328.429 436.274,310.19 C441.302,291.924 423.181,287.567 423.181,287.567 L423.269,283.865 C424.781,283.831 426.323,284.015 427.938,284.369" fill="#329F48"/>
    <path d="M414.738,334.775 C416.076,335.203 417.465,335.426 418.88,335.443 C418.95,335.443 419.021,335.445 419.089,335.445 C427.808,335.445 435.54,328.48 440.883,315.805 C443.986,308.463 444.083,301.267 441.156,295.541 C438.579,290.503 433.793,286.953 427.672,285.543 C426.523,285.292 425.455,285.141 424.444,285.087 L424.407,286.669 C426.732,287.417 432.745,289.821 436.085,295.485 C438.568,299.688 439.021,304.744 437.435,310.51 C435.879,316.162 432.956,320.109 428.751,322.238 C423.335,324.977 417.308,323.941 414.447,323.181 z M419.094,337.852 C419.014,337.852 418.932,337.85 418.85,337.85 C416.887,337.826 414.959,337.46 413.125,336.759 L412.373,336.473 L411.952,319.775 L413.629,320.41 C413.704,320.438 421.376,323.282 427.677,320.083 C431.245,318.27 433.746,314.836 435.112,309.871 C436.52,304.758 436.151,300.329 434.012,296.707 C430.411,290.604 422.975,288.754 422.9,288.738 L421.955,288.51 L422.094,282.687 L423.243,282.661 C424.771,282.633 426.41,282.8 428.196,283.195 L428.208,283.197 C435.034,284.767 440.394,288.761 443.3,294.445 C446.556,300.816 446.485,308.734 443.102,316.74 C437.357,330.365 428.838,337.852 419.094,337.852" fill="#016938"/>
    <path d="M427.938,284.369 C430.454,284.942 432.723,285.867 434.713,287.046 C416.793,290.255 411.745,313.504 416.26,325.594 C419.479,334.202 427.188,333.049 432.014,331.342 C428.144,334.814 423.721,336.692 418.866,336.647 C417.039,336.625 415.241,336.28 413.555,335.636 C411.459,334.848 409.497,333.678 407.768,332.21 C403.414,328.488 398.186,321.61 400.351,310.909 C403.441,295.534 411.751,284.12 423.269,283.865 C424.781,283.831 426.323,284.015 427.938,284.369" fill="#8AC440"/>
    <path d="M423.619,285.064 C423.511,285.064 423.403,285.066 423.295,285.068 C413.057,285.296 404.717,295.287 401.531,311.145 C399.514,321.112 404.235,327.605 408.551,331.296 C410.199,332.692 412.027,333.776 413.979,334.509 C415.552,335.109 417.199,335.424 418.88,335.443 C421.522,335.469 423.993,334.897 426.374,333.745 C421.019,333.99 417.124,331.338 415.131,326.014 C412.098,317.892 413.323,306.359 418.107,297.964 C421.304,292.353 425.817,288.503 431.278,286.679 C430.126,286.206 428.92,285.828 427.674,285.545 C426.205,285.221 424.875,285.064 423.619,285.064 M419.038,337.85 L418.854,337.85 C416.887,337.826 414.959,337.46 413.125,336.759 C410.92,335.932 408.854,334.709 406.99,333.13 C402.18,329.016 396.924,321.782 399.171,310.668 C402.592,293.648 411.816,282.915 423.243,282.661 C424.771,282.633 426.41,282.8 428.196,283.195 C428.199,283.195 428.201,283.195 428.203,283.197 C430.754,283.775 433.152,284.723 435.326,286.008 C435.758,286.265 435.987,286.763 435.897,287.259 C435.808,287.755 435.42,288.141 434.924,288.23 C427.101,289.631 422.599,294.946 420.199,299.156 C415.812,306.85 414.63,317.791 417.388,325.172 C419.595,331.07 424.374,332.77 431.612,330.208 C432.155,330.015 432.757,330.236 433.048,330.729 C433.342,331.223 433.245,331.855 432.818,332.239 C428.666,335.962 424.03,337.85 419.038,337.85" fill="#016938"/>
    <path d="M480.178,345.811 C480.178,351.211 477.706,355.734 475.201,358.108 C468.239,364.712 452.558,358.792 437.561,348.706 C422.596,338.589 423.962,326.747 428.516,320.11 C433.039,313.473 442.798,315.913 442.798,315.913 C443.612,316.141 444.425,316.369 445.206,316.597 C472.728,324.437 480.178,336.409 480.178,345.811" fill="#8AC440"/>
    <path d="M438.713,316.686 C435.775,316.686 431.819,317.403 429.51,320.788 C428.074,322.88 425.829,327.229 426.901,332.876 C427.938,338.332 431.75,343.325 438.236,347.709 C454.898,358.913 468.747,362.577 474.374,357.234 C476.497,355.222 478.975,351.023 478.975,345.812 C478.975,338.962 474.546,326.204 444.877,317.753 C444.092,317.525 443.283,317.297 442.474,317.072 C442.451,317.067 440.852,316.686 438.713,316.686 M467.096,362.143 C456.772,362.143 443.34,354.042 436.889,349.705 C429.851,344.944 425.695,339.434 424.536,333.322 C423.302,326.82 425.878,321.827 427.524,319.429 C432.458,312.189 442.663,314.636 443.091,314.744 C443.941,314.984 444.759,315.212 445.545,315.442 C476.725,324.324 481.382,338.282 481.382,345.812 C481.382,351.78 478.618,356.529 476.029,358.983 C473.653,361.237 470.547,362.143 467.096,362.143" fill="#016938"/>
    <path d="M480.178,345.811 C453.404,344.282 436.942,327.397 437.918,321.509 C438.374,318.711 441.692,317.28 445.206,316.597 C472.728,324.437 480.178,336.409 480.178,345.811" fill="#329F48"/>
    <path d="M445.157,317.836 C442.938,318.296 439.484,319.382 439.106,321.702 C438.946,322.673 439.555,324.681 441.746,327.417 C447.846,335.043 461.629,343.172 478.923,344.521 C478.356,337.474 472.807,325.779 445.157,317.836 M481.382,347.086 L480.11,347.013 C460.178,345.875 445.973,336.555 439.865,328.922 C437.517,325.988 436.405,323.285 436.732,321.312 C437.061,319.293 438.758,316.625 444.976,315.414 L445.258,315.36 L445.535,315.44 C476.725,324.324 481.382,338.282 481.382,345.812 z" fill="#016938"/>
    <path d="M356.733,363.424 C356.733,363.424 368.066,368.196 375.223,359.249 C382.38,350.302 394.905,345.531 406.834,354.477 C406.834,354.477 412.202,362.231 420.553,360.442 C428.903,358.653 443.217,359.249 443.814,372.967 C444.41,386.686 460.514,388.475 458.725,398.614 C456.936,408.754 425.92,447.523 425.92,447.523 C425.92,447.523 409.22,466.609 392.52,452.294 C392.52,452.294 389.537,447.523 382.38,447.523 C375.223,447.523 356.733,439.172 357.926,424.858 C359.119,410.543 356.733,363.424 356.733,363.424" fill="#FDF0E9"/>
    <path d="M394.31,450.656 C408.953,462.91 423.494,446.636 424.108,445.938 C436.353,430.627 455.122,405.19 456.356,398.196 C456.96,394.771 454.792,392.665 450.914,389.24 C446.835,385.639 441.76,381.156 441.41,373.072 C441.25,369.428 440.023,366.764 437.653,364.933 C433.403,361.644 426.29,361.675 421.054,362.794 C412.253,364.693 406.397,357.871 405.114,356.198 C393.764,347.911 382.949,353.438 377.105,360.753 C371.919,367.232 364.436,367.709 359.302,366.687 C359.826,377.827 361.345,412.83 360.325,425.058 C359.993,429.036 361.43,432.795 364.594,436.234 C369.855,441.953 378.449,445.115 382.38,445.115 C389.648,445.115 393.351,449.361 394.31,450.656 M405.85,460.003 C401.026,460.003 395.923,458.381 390.955,454.121 L390.48,453.571 C390.396,453.444 388.019,449.93 382.38,449.93 C376.74,449.93 366.98,445.94 361.049,439.492 C356.996,435.087 355.087,429.957 355.529,424.659 C356.693,410.665 354.352,364.016 354.328,363.546 L354.135,359.719 L357.661,361.203 C358.089,361.376 367.445,365.114 373.343,357.745 C381.157,347.979 394.987,342.582 408.278,352.552 L408.591,352.787 L408.814,353.106 C408.993,353.36 413.44,359.512 420.046,358.088 C423.104,357.434 433.608,355.72 440.599,361.125 C444.108,363.838 445.999,367.787 446.219,372.862 C446.48,378.901 450.354,382.322 454.099,385.632 C458.081,389.146 462.197,392.782 461.095,399.033 C459.254,409.475 431.015,445.009 427.801,449.027 C423.582,453.851 415.243,460.003 405.85,460.003" fill="#764D28"/>
    <path d="M461.309,408.404 C459.52,418.554 428.484,457.332 428.484,457.332 C428.484,457.332 411.795,476.397 395.106,462.083 C395.106,462.083 392.113,457.332 384.955,457.332 C377.831,457.332 359.482,449.037 360.491,434.852 C365.631,442.985 377.115,447.508 382.385,447.508 C389.542,447.508 392.535,452.29 392.535,452.29 C409.225,466.604 425.914,447.508 425.914,447.508 C425.914,447.508 454.087,412.34 458.284,400.238 C460.496,402.515 461.927,404.988 461.309,408.404" fill="#FACBC0"/>
    <path d="M396.891,460.442 C411.48,472.661 426.059,456.446 426.675,455.743 C438.925,440.432 457.705,414.988 458.939,407.985 L458.939,407.975 C459.127,406.941 459.078,406.019 458.751,405.103 C451.309,419.593 428.843,447.701 427.792,449.012 C421.412,456.319 405.601,466.664 390.967,454.116 L390.495,453.566 C390.41,453.439 388.026,449.915 382.385,449.915 C377.939,449.915 370.645,447.35 364.815,442.889 C365.471,443.998 366.289,445.082 367.269,446.135 C372.542,451.796 381.073,454.925 384.956,454.925 C392.225,454.925 395.932,459.156 396.891,460.442 M408.436,469.796 C403.61,469.796 398.506,468.171 393.536,463.909 L393.069,463.366 C392.984,463.239 390.598,459.739 384.956,459.739 C379.38,459.739 369.686,455.792 363.747,449.417 C359.672,445.042 357.716,439.946 358.092,434.68 L358.611,427.367 L362.528,433.566 C367.243,441.029 378.118,445.101 382.385,445.101 C389.655,445.101 393.365,449.356 394.324,450.651 C408.955,462.915 423.487,446.629 424.101,445.924 C424.315,445.656 451.997,411.024 456.01,399.451 L457.289,395.761 L460.009,398.56 C462.009,400.618 464.562,403.918 463.679,408.822 C461.838,419.275 433.579,454.819 430.361,458.836 C426.146,463.653 417.82,469.796 408.436,469.796" fill="#764D28"/>
    <path d="M389.538,392.65 C392.794,391.486 396.731,391.538 400,393.533 C401.645,394.488 402.997,396.063 403.754,397.905 C404.519,399.796 404.623,401.658 404.662,403.602 C404.543,405.546 404.057,407.648 402.765,409.368 C402.443,409.793 402.133,410.241 401.778,410.639 L400.529,411.648 C399.719,412.403 398.692,412.676 397.741,413.16 C393.752,414.59 389.529,413.9 385.908,412.289 C382.263,410.644 379.118,407.714 377.294,404.036 C376.906,403.098 376.364,402.191 376.134,401.205 L375.417,398.241 C375.325,396.302 374.927,394.389 375.224,392.392 C375.4,388.443 376.873,384.382 379.433,381.167 C381.951,377.918 385.435,375.518 389.212,374.159 C396.812,371.426 405.549,373.022 411.85,377.888 C418.151,382.87 421.438,390.766 421.293,398.336 C421.273,402.13 420.508,405.93 418.919,409.361 C417.328,412.799 415.012,415.794 412.267,418.227 C406.723,423.019 399.529,425.63 392.549,425.323 C399.406,424.183 405.654,420.827 410.03,415.946 C414.516,411.134 416.649,404.726 416.218,398.474 C415.793,392.254 412.964,386.201 408.108,382.782 C403.384,379.34 396.852,378.191 391.37,380.293 C385.872,382.157 381.709,386.984 381.342,392.956 C381.014,394.397 381.317,395.953 381.281,397.467 L381.699,399.571 C381.811,400.286 382.198,400.891 382.416,401.568 C383.582,404.13 385.595,406.34 388.152,407.756 C390.682,409.159 393.788,409.783 396.457,409.114 C399.111,408.449 401.08,406.326 401.499,403.297 C401.659,401.832 401.768,400.123 401.39,398.743 C401.014,397.313 400.167,396.002 398.958,394.992 C396.535,392.953 392.955,392.135 389.538,392.65" fill="#EE82B3"/>
    <g clip-path="url(#Clip_17)" opacity="0.35">
      <path d="M525.398,353.912 C525.398,353.912 506.594,386.672 512.158,408.989 C517.753,431.306 507.636,405.768 507.636,405.768 C507.636,405.768 505.879,372.748 522.633,349.748 C522.926,349.357 523.219,348.967 523.479,348.576 C524.195,350.203 524.878,351.862 525.528,353.619 C525.464,353.814 525.398,353.912 525.398,353.912" fill="#924F36"/>
    </g>
    <path d="M431.074,401.445 C434.151,400.952 437.373,400.79 440.776,399.997 C448.105,398.289 451.516,391.849 457.479,387.984 C465.318,382.904 475.967,381.3 484.369,385.959 C487.797,387.86 490.415,390.916 492.387,394.304 C494.674,398.234 499.687,404.935 507.633,405.771 C518.966,406.964 532.684,425.454 524.93,440.365 C517.176,455.276 499.283,459.451 498.09,474.959 C496.897,490.466 481.39,497.027 470.057,491.659 C460.702,487.228 454.307,478.23 443.315,477.487 C431.555,476.692 420.695,478.709 414.316,465.418 C412.108,460.816 412.559,455.438 413.059,450.357 C413.857,442.258 420.153,434.532 416.393,426.483 C413.146,419.532 414.087,412.806 420.28,406.598 C423.7,403.169 427.277,402.055 431.074,401.445" fill="#FDF0E9"/>
    <path d="M473.208,385.599 C468.368,385.599 463.286,387.089 458.789,390.004 C456.765,391.316 455.044,392.971 453.222,394.722 C449.952,397.867 446.572,401.118 441.323,402.341 C439.028,402.874 436.87,403.133 434.781,403.382 C433.652,403.516 432.545,403.648 431.454,403.822 C427.879,404.395 424.898,405.375 421.983,408.297 C416.746,413.549 415.631,419.163 418.574,425.465 C421.407,431.53 419.374,437.409 417.578,442.597 C416.618,445.371 415.711,447.99 415.455,450.592 C415.008,455.117 414.503,460.244 416.487,464.375 C421.259,474.321 428.683,474.553 438.083,474.85 C439.851,474.906 441.654,474.963 443.478,475.085 C451.139,475.604 456.669,479.688 462.014,483.634 C465.023,485.858 467.868,487.957 471.088,489.486 C476.135,491.876 482.339,491.58 487.27,488.719 C492.231,485.842 495.221,480.889 495.691,474.772 C496.446,464.953 503.254,459.182 509.836,453.601 C514.669,449.504 519.669,445.265 522.793,439.255 C525.731,433.606 525.383,426.586 521.843,419.997 C518.383,413.563 512.438,408.697 507.381,408.163 C498.378,407.218 492.818,399.832 490.305,395.514 C488.305,392.075 485.917,389.569 483.201,388.062 C480.223,386.412 476.782,385.599 473.208,385.599 M478.371,495.898 C475.148,495.898 471.939,495.214 469.026,493.834 C465.383,492.109 462.216,489.77 459.153,487.509 C454.144,483.808 449.409,480.313 443.154,479.89 C441.388,479.77 439.642,479.716 437.931,479.662 C428.222,479.356 418.184,479.041 412.147,466.458 C409.58,461.114 410.182,455.019 410.664,450.122 C410.977,446.953 412.018,443.94 413.027,441.025 C414.74,436.074 416.219,431.798 414.211,427.503 C410.42,419.379 411.926,411.563 418.574,404.898 C422.644,400.82 426.983,399.663 430.693,399.068 C431.844,398.883 433.018,398.744 434.212,398.601 C436.17,398.368 438.196,398.126 440.23,397.653 C444.188,396.729 446.955,394.068 449.887,391.252 C451.791,389.421 453.76,387.526 456.17,385.965 C465.46,379.942 476.988,379.117 485.538,383.852 C489.022,385.787 492.026,388.894 494.466,393.093 C496.521,396.623 500.997,402.653 507.884,403.377 C514.535,404.078 521.848,409.842 526.084,417.719 C530.391,425.733 530.748,434.391 527.066,441.474 C523.503,448.326 517.896,453.079 512.948,457.273 C506.587,462.668 501.093,467.327 500.491,475.141 C499.904,482.774 495.966,489.239 489.687,492.883 C486.236,494.885 482.294,495.898 478.371,495.898" fill="#764D28"/>
    <path d="M462.015,426.46 C466.39,427.692 470.567,430.744 472.552,435.369 C473.588,437.645 473.838,440.361 473.247,442.91 C472.627,445.518 471.322,447.592 469.883,449.705 C468.276,451.697 466.156,453.579 463.463,454.437 C462.794,454.649 462.122,454.892 461.438,455.049 L459.332,455.179 C457.889,455.371 456.582,454.883 455.195,454.677 C449.832,453.173 445.833,449.22 443.18,444.738 C440.528,440.202 439.388,434.67 440.232,429.341 C440.531,428.04 440.64,426.657 441.144,425.424 L442.632,421.704 C444.01,419.556 445.039,417.204 446.877,415.291 C450.071,411.194 454.739,407.964 459.929,406.468 C465.099,404.903 470.658,404.984 475.74,406.402 C485.961,409.259 494.107,417.617 497.155,427.626 C500.114,437.759 497.626,448.721 491.709,456.721 C488.8,460.77 485.089,464.258 480.775,466.726 C476.453,469.197 471.693,470.644 466.9,471.161 C457.314,472.076 447.619,469.397 440.375,463.757 C448.589,467.754 457.837,468.914 466.24,467.015 C474.709,465.273 481.871,460.032 486.167,453.005 C490.445,446.018 492.022,437.38 489.421,430.021 C486.979,422.739 480.855,416.536 473.382,414.616 C466.074,412.43 457.94,414.432 453.002,420.55 C451.554,421.846 450.695,423.743 449.503,425.338 L448.35,427.91 C447.925,428.761 447.88,429.703 447.599,430.595 C446.897,434.227 447.372,438.127 449.033,441.59 C450.677,445.018 453.529,448.051 456.898,449.366 C460.247,450.672 463.973,449.896 466.727,446.97 C468.013,445.524 469.431,443.775 470.076,442.009 C470.762,440.19 470.852,438.141 470.324,436.139 C469.281,432.11 466.068,428.509 462.015,426.46" fill="#EE82B3"/>
    <path d="M524.325,459.447 C516.517,466.084 511.345,473.176 509.783,483.391 C506.465,504.895 479.625,506.424 464.107,497.022 C464.107,497.022 452.805,489.457 439.057,489.28 C421.019,489.047 414.227,473.457 415.463,466.658 C421.937,476.19 427.416,477.095 443.319,477.503 C454.335,477.785 460.691,487.23 470.061,491.655 C481.382,497.022 496.9,490.451 498.103,474.965 C499.275,459.447 517.168,455.283 524.943,440.351 C526.7,436.967 527.35,433.389 527.123,429.843 C527.643,429.68 527.904,429.615 527.904,429.615 C527.904,429.615 532.1,452.876 524.325,459.447" fill="#FACBC0"/>
    <path d="M419.244,474.561 C419.952,476.124 420.911,477.718 422.143,479.213 C424.968,482.643 430.204,486.756 439.087,486.872 C453.385,487.057 464.96,494.697 465.446,495.022 C474.666,500.605 487.804,501.717 496.603,497.615 C502.631,494.803 506.366,489.758 507.405,483.023 C508.905,473.204 513.644,465.367 522.767,457.614 C522.769,457.612 522.769,457.612 522.772,457.609 C525.687,455.143 526.648,448.808 526.625,442.301 C523.045,448.712 517.697,453.246 512.953,457.266 C506.589,462.661 501.093,467.323 500.503,475.146 C499.911,482.777 495.966,489.236 489.682,492.88 C483.394,496.524 475.482,496.89 469.029,493.83 C465.385,492.109 462.228,489.721 459.174,487.41 C454.188,483.635 449.478,480.068 443.258,479.911 C431.306,479.603 424.694,478.947 419.244,474.561 M484.302,504.914 C476.92,504.914 469.203,502.925 462.858,499.081 C462.663,498.952 451.856,491.853 439.026,491.686 C428.295,491.547 421.901,486.491 418.426,482.273 C413.76,476.606 412.387,470.132 413.097,466.227 C413.271,465.266 414.009,464.504 414.966,464.302 C415.937,464.097 416.908,464.495 417.455,465.306 C423.182,473.735 427.481,474.688 443.38,475.097 C451.146,475.297 456.706,479.502 462.08,483.571 C465.07,485.832 467.893,487.97 471.088,489.479 C476.133,491.869 482.332,491.578 487.268,488.715 C492.233,485.837 495.228,480.887 495.703,474.779 C496.443,464.951 503.254,459.177 509.84,453.594 C514.676,449.494 519.676,445.256 522.81,439.238 C524.288,436.389 524.932,433.279 524.721,429.997 C524.65,428.888 525.346,427.875 526.406,427.545 C527.01,427.355 527.316,427.28 527.316,427.28 C527.953,427.12 528.649,427.233 529.208,427.595 C529.765,427.957 530.153,428.533 530.273,429.186 C530.727,431.709 534.467,454.022 525.882,461.284 C517.598,468.324 513.493,475.045 512.163,483.755 C510.868,492.156 506.19,498.456 498.639,501.978 C494.408,503.952 489.438,504.914 484.302,504.914" fill="#764D28"/>
    <g clip-path="url(#Clip_18)" opacity="0.35">
      <path d="M307.624,393.806 C307.624,428.523 264.874,456.667 212.139,456.667 C159.405,456.667 116.655,428.523 116.655,393.806 C116.655,359.09 159.405,330.945 212.139,330.945 C264.874,330.945 307.624,359.09 307.624,393.806" fill="#924F36"/>
    </g>
    <path d="M307.628,393.814 C307.628,426.737 267.383,453.471 217.503,453.843 C217.132,453.863 216.761,453.863 216.39,453.863 C204.59,453.863 193.327,452.399 182.972,449.676 C149.121,440.929 125.172,419.228 125.172,393.814 C125.172,360.644 166.015,333.745 216.39,333.745 C227.529,333.745 238.214,335.065 248.095,337.479 C252.077,338.448 255.954,339.603 259.647,340.924 C288.217,351.073 307.628,370.958 307.628,393.814" fill="#FFF7EA"/>
    <path d="M216.39,336.153 C167.419,336.153 127.579,362.02 127.579,393.814 C127.579,417.543 149.558,438.554 183.574,447.346 C193.985,450.08 205.142,451.518 216.498,451.455 C216.792,451.455 217.088,451.455 217.382,451.439 C265.864,451.077 305.221,425.228 305.221,393.814 C305.221,372.752 287.449,353.355 258.84,343.191 C255.22,341.898 251.414,340.762 247.526,339.817 C237.573,337.384 227.098,336.153 216.39,336.153 M216.39,456.269 C204.578,456.269 193.127,454.833 182.361,452.003 C146.161,442.649 122.764,419.809 122.764,393.814 C122.764,359.364 164.765,331.338 216.39,331.338 C227.484,331.338 238.342,332.617 248.666,335.139 C252.714,336.124 256.682,337.307 260.455,338.656 C291.036,349.519 310.035,370.655 310.035,393.814 C310.035,427.863 268.535,455.87 217.523,456.251 C217.215,456.269 216.801,456.269 216.39,456.269" fill="#924F36"/>
    <path d="M199.294,439.787 C174.935,439.787 155.117,419.305 155.117,394.13 C155.117,368.956 174.935,348.474 199.294,348.474 C223.652,348.474 243.469,368.956 243.469,394.13 C243.469,419.305 223.652,439.787 199.294,439.787" fill="#F9AC1B"/>
    <path d="M199.293,346.067 C173.607,346.067 152.71,367.628 152.71,394.13 C152.71,420.633 173.607,442.194 199.293,442.194 C224.979,442.194 245.876,420.633 245.876,394.13 C245.876,367.628 224.979,346.067 199.293,346.067 M199.293,350.881 C222.361,350.881 241.061,370.245 241.061,394.13 C241.061,418.016 222.361,437.379 199.293,437.379 C176.225,437.379 157.524,418.016 157.524,394.13 C157.524,370.245 176.225,350.881 199.293,350.881" fill="#924F36"/>
    <g clip-path="url(#Clip_19)" opacity="0.35">
      <path d="M241.061,394.13 C241.061,418.016 222.361,437.38 199.293,437.38 C176.224,437.38 157.524,418.016 157.524,394.13 C157.524,370.244 176.224,350.881 199.293,350.881 C222.361,350.881 241.061,370.244 241.061,394.13" fill="#924F36"/>
    </g>
    <path d="M234.725,387.57 C234.725,407.833 218.862,424.259 199.293,424.259 C179.724,424.259 163.86,407.833 163.86,387.57 C163.86,367.307 179.724,350.881 199.293,350.881 C218.862,350.881 234.725,367.307 234.725,387.57" fill="#F9AC1B"/>
    <g opacity="0.35">
      <path d="M363.784,368.866 C363.784,368.866 363.692,368.928 363.508,369.081 C363.575,369.25 363.624,369.43 363.69,369.599 C360.495,361.386 355.64,354.193 349.108,348.522 C327.957,330.159 266.921,343.11 234.778,384.632 C202.635,426.155 194.034,471.472 222.593,493.579 C229.766,499.132 238.881,502.629 249.018,504.1 C251.093,505.033 253.735,505.639 257.012,505.912 C325.811,511.617 353.048,471.835 353.048,471.835 C386.727,435.61 363.784,368.866 363.784,368.866" fill="#924F36"/>
    </g>
    <path d="M348.681,465.01 C348.681,465.01 319.793,507.205 246.822,501.154 C243.308,500.861 240.478,500.21 238.266,499.202 C270.311,503.919 312.082,489.442 337.621,456.422 C363.712,422.685 370.869,383.711 359.775,356.026 C359.97,355.863 360.068,355.798 360.068,355.798 C360.068,355.798 384.402,426.589 348.681,465.01" fill="#FFE0BD"/>
    <path d="M365.57,401.111 C362.128,420.284 353.24,440.162 339.525,457.894 C324.697,477.069 303.051,491.256 280.216,498.042 C326.794,491.686 346.465,463.985 346.698,463.646 L346.919,463.371 C362.864,446.22 366.388,422.092 365.57,401.111 M261.076,504.164 C256.459,504.164 251.649,503.971 246.623,503.553 C242.822,503.235 239.762,502.528 237.267,501.392 L221.814,494.345 L238.617,496.82 C266.598,500.946 308.923,489.596 335.717,454.951 C360.167,423.335 368.734,384.856 357.539,356.922 L356.888,355.295 L358.235,354.176 C358.564,353.901 358.734,353.795 358.734,353.795 L361.307,352.168 L362.344,355.015 C363.357,357.958 386.675,427.47 350.562,466.523 C348.425,469.556 322.656,504.164 261.076,504.164" fill="#924F36"/>
    <path d="M315.324,326.775 C312.607,326.775 309.777,326.919 306.845,327.21 C283.363,329.531 247.625,342.984 224.193,373.257 C207.314,395.06 196.531,418.116 193.828,438.18 C190.983,459.274 196.94,476.199 211.052,487.121 C239.738,509.328 302.165,500.25 336.667,455.684 C369.554,413.203 372.648,360.25 343.712,335.13 C337.407,329.655 327.504,326.775 315.324,326.775 M250.444,501.091 C234.407,501.091 219.888,497.006 209.58,489.025 C194.749,477.546 188.477,459.852 191.442,437.858 C194.201,417.381 205.156,393.916 222.288,371.785 C241.96,346.371 275.058,327.934 306.608,324.815 C323.329,323.16 337.076,326.178 345.292,333.31 C375.189,359.268 372.238,413.669 338.571,457.156 C315.576,486.86 280.366,501.091 250.444,501.091" fill="#000000"/>
    <g clip-path="url(#Clip_20)" opacity="0.35">
      <path d="M259.647,340.924 C252.386,363.47 234.274,417.846 217.504,453.843 C217.132,453.863 216.761,453.863 216.39,453.863 C204.59,453.863 193.327,452.399 182.972,449.676 C183.323,382.778 225.074,350.309 248.095,337.479 C252.077,338.448 255.954,339.603 259.647,340.924" fill="#924F36"/>
    </g>
    <path d="M344.502,334.221 C373.428,359.334 371.711,412.38 337.619,456.42 C303.526,500.461 240.607,511.523 210.316,488.074 C180.025,464.625 189.147,416.561 223.24,372.52 C257.332,328.48 322.068,314.743 344.502,334.221" fill="#FFF7EA"/>
    <path d="M315.345,327.979 C312.661,327.979 309.863,328.12 306.965,328.407 C283.718,330.706 248.344,344.023 225.145,373.995 C208.393,395.632 197.695,418.483 195.019,438.34 C192.239,458.984 198.036,475.524 211.79,486.169 C240.037,508.04 301.622,498.99 335.715,454.946 C368.212,412.971 371.376,360.742 342.925,336.037 C336.839,330.755 327.219,327.979 315.345,327.979 M250.413,502.255 C234.106,502.255 219.331,498.096 208.842,489.977 C193.654,478.221 187.224,460.141 190.247,437.698 C193.035,417.014 204.077,393.344 221.336,371.047 C241.203,345.384 274.626,326.766 306.49,323.616 C323.561,321.93 337.61,325.05 346.079,332.403 C376.461,358.779 373.581,413.899 339.523,457.894 C316.298,487.896 280.709,502.255 250.413,502.255" fill="#924F36"/>
    <path d="M258.098,484.94 C246.833,484.94 236.104,481.419 227.07,474.757 C221.539,470.676 216.967,465.666 213.481,459.869 C202.148,441.267 203.311,417.722 216.454,399.894 C226.68,386.018 242.973,377.731 260.033,377.731 C270.757,377.731 281.062,380.947 289.836,387.029 C290.228,387.285 290.661,387.6 291.088,387.917 C314.589,405.245 319.354,438.818 301.707,462.761 C291.469,476.649 275.167,484.94 258.098,484.94" fill="#F9AC1B"/>
    <path d="M260.035,375.324 L260.035,375.324 C242.211,375.324 225.194,383.976 214.515,398.467 C200.789,417.083 199.579,441.682 211.433,461.134 C215.068,467.178 219.852,472.421 225.638,476.693 C235.092,483.664 246.314,487.348 258.095,487.348 C275.926,487.348 292.953,478.69 303.644,464.187 C322.079,439.18 317.088,404.096 292.519,385.979 C292.07,385.649 291.621,385.321 291.152,385.013 C281.986,378.674 271.228,375.324 260.035,375.324 M260.033,380.138 C269.916,380.138 279.834,383.024 288.465,389.008 C288.877,389.276 289.269,389.565 289.661,389.854 C312.125,406.418 316.663,438.413 299.769,461.331 C289.561,475.177 273.871,482.533 258.095,482.533 C247.761,482.533 237.39,479.377 228.498,472.82 C223.135,468.86 218.782,464.012 215.544,458.628 C205.086,441.466 205.539,418.754 218.391,401.323 C228.586,387.488 244.264,380.139 260.033,380.138" fill="#924F36"/>
    <g clip-path="url(#Clip_21)" opacity="0.35">
      <path d="M299.769,461.331 C282.874,484.249 250.963,489.385 228.498,472.821 C223.135,468.86 218.782,464.012 215.544,458.628 C205.085,441.466 205.539,418.754 218.391,401.323 C234.976,378.818 266.062,373.475 288.465,389.008 C288.877,389.276 289.269,389.565 289.661,389.854 C312.125,406.418 316.664,438.413 299.769,461.331" fill="#924F36"/>
    </g>
    <path d="M285.618,446.292 C269.012,468.819 237.926,474.161 215.544,458.628 C205.085,441.465 205.539,418.754 218.391,401.323 C234.976,378.818 266.062,373.475 288.465,389.008 C298.923,406.171 298.469,428.862 285.618,446.292" fill="#F9AC1B"/>
    <g opacity="0.35">
      <path d="M324.092,215.917 C324.092,215.917 333.21,266.721 390.527,274.537 C447.844,282.353 467.384,320.13 501.253,326.643 C535.122,333.157 531.215,410.013 554.662,434.764 C578.11,459.514 681.02,488.173 681.02,436.066 C681.02,383.96 394.435,153.39 324.092,215.917" fill="#924F36"/>
    </g>
    <path d="M455.218,287.051 C449.102,287.051 442.842,286.204 436.612,284.535 C434.764,284.065 433.037,283.52 431.448,283.003 C427.385,281.611 423.448,279.909 419.71,277.927 C418.265,277.189 416.75,276.291 415.112,275.201 L414.661,274.904 C414.306,274.672 413.958,274.444 413.596,274.227 C412,273.21 410.469,272.33 408.977,271.569 C408.1,271.098 407.298,270.71 406.494,270.386 C399.849,267.408 394.715,266.792 392.239,266.688 C391.677,266.654 391.236,266.641 390.864,266.641 C390.105,266.641 389.661,266.691 389.583,266.7 L389.327,266.735 L389.054,266.717 C388.208,266.648 387.3,266.512 386.353,266.317 C364.47,262.829 344.747,248.642 332.349,227.414 C317.358,201.746 315.303,169.405 326.709,138.684 C339.883,103.22 370.991,79.995 412.054,74.963 C416.84,74.376 421.669,74.078 426.407,74.078 C454.847,74.078 481.446,84.573 503.331,104.426 C505.113,106.019 506.989,107.817 508.898,109.76 C542.784,144.378 549.409,194.139 525.777,236.535 C502.518,278.287 474.57,287.051 455.218,287.051" fill="#924F36"/>
    <path d="M426.412,71.671 L426.412,76.486 L426.41,71.671 L426.407,71.671 C421.57,71.671 416.643,71.975 411.762,72.574 C369.775,77.719 337.952,101.509 324.454,137.845 C312.795,169.247 314.915,202.335 330.27,228.628 C343.012,250.447 363.311,265.046 385.975,268.696 C386.985,268.902 387.957,269.043 388.866,269.116 L389.41,269.159 L389.945,269.081 C389.944,269.081 389.943,269.081 389.944,269.081 C389.957,269.081 390.291,269.048 390.86,269.048 C391.189,269.048 391.579,269.059 392.025,269.088 C394.441,269.19 399.227,269.767 405.433,272.549 L405.509,272.583 L405.586,272.614 C406.271,272.893 406.994,273.238 407.796,273.668 C409.318,274.446 410.779,275.287 412.225,276.212 L412.302,276.261 L412.38,276.307 C412.706,276.499 413.019,276.707 413.338,276.917 L413.832,277.24 C415.48,278.34 417.073,279.283 418.647,280.088 C422.428,282.092 426.482,283.846 430.633,285.268 C432.315,285.818 434.082,286.375 436.048,286.875 C442.422,288.584 448.892,289.458 455.221,289.458 C475.215,289.458 504.051,280.48 527.88,237.706 C552.043,194.356 545.268,143.474 510.621,108.079 C508.674,106.097 506.76,104.263 504.925,102.621 C482.615,82.381 455.457,71.671 426.412,71.671 M426.407,76.486 C454.306,76.484 480.376,86.85 501.715,106.208 C503.569,107.868 505.391,109.625 507.18,111.446 C540.331,145.313 546.74,193.981 523.674,235.363 C501.853,274.533 476.047,284.644 455.221,284.644 C448.632,284.644 442.545,283.633 437.235,282.21 C435.446,281.754 433.787,281.234 432.193,280.713 C427.443,279.087 423.539,277.232 420.839,275.801 C419.375,275.053 417.911,274.174 416.447,273.198 C415.894,272.84 415.373,272.483 414.82,272.157 C413.194,271.116 411.6,270.205 410.07,269.425 C409.16,268.936 408.281,268.514 407.403,268.156 C400.799,265.195 395.464,264.415 392.34,264.284 C391.773,264.247 391.278,264.234 390.86,264.234 C389.814,264.234 389.25,264.317 389.25,264.317 C388.436,264.252 387.623,264.122 386.842,263.959 C340.939,256.639 306.161,200.943 328.967,139.522 C342.696,102.565 374.382,82.004 412.348,77.352 C417.075,76.772 421.768,76.486 426.407,76.486" fill="#764D28"/>
    <path d="M434.677,276.005 C434.677,276.005 498.137,274.997 520.547,211.939 C542.957,148.881 488.236,96.561 428.091,89.146 C367.945,81.731 337.415,135.756 332.051,170.041 C326.685,204.325 350.662,251.301 389.566,258.597 C428.47,265.895 434.677,276.005 434.677,276.005" fill="#EFB981"/>
    <path d="M463.19,193.314 C472.436,207.914 474.88,226.051 469.36,242.459 C465.749,253.166 459.114,262.602 451.189,270.531 C446.519,275.173 441.69,277.868 436.665,278.724 C430.23,279.834 423.49,277.928 416.458,273.183 C414.297,271.726 412.12,270.591 409.926,269.679 C408.997,269.32 408.069,268.961 407.148,268.641 C401.37,266.648 395.492,265.693 389.478,263.207 C381.73,260.019 380.237,249.046 378.871,241.803 C376.629,230.156 377.912,217.946 384.672,207.926 C403.357,180.233 418.175,171.804 437.418,173.618 C448.423,174.655 457.657,184.564 463.19,193.314" fill="#D79361"/>
    <path d="M343.114,196.102 C344.154,205.631 349.842,221.522 359.263,222.753 C370.149,224.175 368.09,202.649 365.972,191.744 C363.854,180.839 383.949,142.279 430.727,153.704 C477.506,165.13 488.822,186.98 485.468,202.485 C482.114,217.989 483.134,230.522 491.293,232.474 C499.452,234.426 524.225,187.177 495.57,148.89 C478.863,126.568 448.708,116.335 421.574,117.663 C394.536,118.987 371.207,135.75 356.897,158.06 C350.752,167.64 342.901,181.582 342.94,193.266 C342.943,194.12 343.001,195.074 343.114,196.102" fill="#D79361"/>
    <g clip-path="url(#Clip_22)" opacity="0.45">
      <path d="M523.674,235.363 C494.948,286.927 459.325,288.131 437.235,282.21 C435.446,281.754 433.787,281.234 432.193,280.713 C431.705,280.128 431.249,279.509 430.794,278.891 C428.614,275.996 426.564,272.905 424.677,269.685 C424.515,269.392 424.32,269.099 424.157,268.774 C422.14,265.26 420.383,261.616 418.822,257.876 C417.423,254.557 416.219,251.141 415.178,247.66 C408.476,225.31 409.257,200.325 417.716,176.154 C417.976,175.34 418.269,174.527 418.561,173.714 C421.262,166.426 424.677,159.594 428.744,153.283 C436.585,141.149 446.767,130.966 458.934,123.061 C466.71,118.018 475.266,113.854 484.505,110.763 C490.003,108.844 495.761,107.347 501.715,106.209 C503.569,107.868 505.391,109.625 507.18,111.446 C540.331,145.313 546.74,193.981 523.674,235.363" fill="#924F36"/>
    </g>
    <path d="M570.502,337.256 C563.951,337.256 557.246,336.351 550.577,334.569 C542.747,332.496 536.388,329.548 532.432,327.442 C532.013,327.232 531.498,326.95 531.023,326.633 L530.784,326.506 C530.163,326.158 529.618,325.85 529.164,325.566 C528.682,325.298 528.064,324.901 527.481,324.498 C527.168,324.292 525.817,323.434 525.817,323.434 C524.289,322.441 522.732,321.551 520.922,320.627 C519.959,320.114 519.032,319.682 518.137,319.282 L517.946,319.233 L517.765,319.127 C510.797,316.088 505.412,315.462 502.824,315.359 C502.222,315.324 501.742,315.309 501.336,315.309 C500.487,315.309 499.991,315.363 499.916,315.373 L499.674,315.403 L499.422,315.387 C498.411,315.312 497.415,315.161 496.455,314.94 C473.021,311.207 451.855,295.977 438.549,273.189 C422.461,245.635 420.258,210.924 432.505,177.95 C446.852,139.367 479.403,115.073 524.159,109.545 C529.286,108.919 534.453,108.601 539.526,108.601 C572.897,108.601 603.537,121.861 628.131,146.946 C638.375,157.385 646.387,169.189 651.946,182.028 C666.124,214.288 664.048,251.103 646.244,283.024 C621.281,327.846 591.278,337.256 570.502,337.256" fill="#924F36"/>
    <path d="M539.527,106.193 L539.527,106.193 C534.356,106.193 529.088,106.517 523.87,107.156 C478.834,112.718 444.713,138.215 430.25,177.111 C417.75,210.765 420.018,246.227 436.471,274.405 C450.112,297.768 471.833,313.404 496.084,317.324 C497.107,317.552 498.169,317.707 499.244,317.787 L499.746,317.824 L500.242,317.757 C500.242,317.757 500.241,317.757 500.242,317.757 C500.249,317.757 500.648,317.717 501.336,317.717 C501.701,317.717 502.132,317.728 502.623,317.758 C505.15,317.859 510.2,318.451 516.803,321.334 L517.172,321.495 L517.21,321.505 C517.928,321.827 518.854,322.254 519.75,322.732 C521.564,323.658 523.05,324.509 524.505,325.452 L525.208,325.9 C525.526,326.101 525.852,326.307 526.176,326.524 C526.795,326.949 527.419,327.345 527.985,327.668 C528.437,327.946 528.969,328.248 529.568,328.585 L529.859,328.749 C530.3,329.033 530.782,329.305 531.353,329.592 C535.419,331.757 541.932,334.771 549.964,336.899 C556.827,338.732 563.74,339.663 570.502,339.663 C591.922,339.663 622.816,330.04 648.349,284.194 C666.52,251.612 668.633,214.016 654.145,181.048 C648.477,167.96 640.299,155.911 629.849,145.259 C604.794,119.703 573.561,106.193 539.527,106.193 M539.525,111.008 C572.14,111.007 602.447,124.186 626.412,148.631 C636.562,158.976 644.37,170.59 649.738,182.985 C663.434,214.152 661.905,250.003 644.142,281.852 C620.676,323.987 592.904,334.849 570.502,334.849 C563.429,334.849 556.895,333.767 551.197,332.245 C543.584,330.228 537.468,327.397 533.564,325.315 C533.174,325.12 532.751,324.892 532.361,324.632 C531.612,324.209 530.962,323.851 530.441,323.526 C529.92,323.233 529.367,322.876 528.847,322.518 C528.261,322.127 527.676,321.77 527.123,321.411 C525.366,320.273 523.674,319.329 522.015,318.484 C521.039,317.963 520.063,317.508 519.12,317.085 C518.99,317.02 518.859,316.954 518.729,316.922 C511.8,313.896 506.204,313.083 502.918,312.953 C502.314,312.916 501.785,312.903 501.336,312.903 C500.214,312.903 499.6,312.986 499.6,312.986 C498.722,312.92 497.844,312.79 496.998,312.595 C447.645,304.722 410.233,244.83 434.763,178.789 C449.532,139.066 483.627,116.977 524.455,111.934 C529.522,111.314 534.551,111.008 539.525,111.008" fill="#764D28"/>
    <path d="M548.452,325.555 C548.452,325.555 616.69,324.47 640.788,256.664 C664.885,188.858 606.043,132.598 541.369,124.625 C476.695,116.651 443.866,174.744 438.097,211.611 C432.328,248.477 458.11,298.99 499.944,306.836 C541.777,314.683 548.452,325.555 548.452,325.555" fill="#EFB981"/>
    <path d="M585.746,289.497 C581.875,300.981 574.718,311.131 566.194,319.655 C564.47,321.379 562.746,322.843 560.957,324.047 C557.573,326.422 554.125,327.886 550.579,328.471 C545.113,329.415 539.452,328.341 533.564,325.315 C533.174,325.12 532.751,324.892 532.36,324.632 C531.612,324.21 530.962,323.851 530.441,323.526 C529.921,323.233 529.367,322.876 528.847,322.518 C528.261,322.127 527.676,321.769 527.123,321.411 C525.366,320.338 523.609,319.492 521.852,318.744 C520.876,318.353 519.901,318.028 518.957,317.67 C518.924,317.67 518.892,317.638 518.859,317.638 C513.622,315.816 508.319,314.807 502.919,312.953 C501.91,312.595 500.869,312.205 499.86,311.782 C496.77,310.513 494.59,308.073 492.996,305.113 C490.328,300.135 489.352,293.661 488.441,288.781 C486.034,276.256 487.4,263.113 494.688,252.345 C514.11,223.554 529.628,214.119 549.375,215.29 C550.026,215.323 550.709,215.388 551.392,215.453 C563.234,216.559 573.156,227.23 579.11,236.632 C589.065,252.345 591.667,271.832 585.746,289.497" fill="#D79361"/>
    <path d="M449.993,239.635 C451.112,249.881 457.228,266.968 467.359,268.292 C479.065,269.821 476.85,246.674 474.573,234.948 C472.296,223.222 493.904,181.758 544.204,194.044 C594.505,206.33 606.674,229.825 603.067,246.498 C599.46,263.17 600.557,276.647 609.331,278.745 C618.104,280.844 644.743,230.037 613.93,188.868 C595.965,164.864 563.539,153.861 534.362,155.289 C505.287,156.712 480.202,174.738 464.814,198.727 C458.207,209.029 449.765,224.021 449.807,236.585 C449.81,237.503 449.873,238.529 449.993,239.635" fill="#D79361"/>
    <path d="M541.632,277.46 C541.892,296.004 532.556,304.202 525.594,313.214 C524.292,314.905 523.056,316.662 522.015,318.484 C521.95,318.581 521.917,318.646 521.852,318.744 C520.876,318.353 519.9,318.028 518.957,317.67 C518.924,317.67 518.892,317.638 518.859,317.638 C518.859,317.605 518.892,317.573 518.924,317.54 C518.99,317.41 519.055,317.247 519.12,317.085 C519.803,315.751 520.616,314.027 521.527,311.945 C523.869,306.544 526.765,298.801 528.847,289.595 C532.914,271.572 534.898,249.775 544.267,237.608 C553.637,225.408 541.274,250.621 541.632,277.46" fill="#924F36"/>
    <g clip-path="url(#Clip_23)" opacity="0.45">
      <path d="M644.142,281.852 C613.269,337.287 574.945,338.589 551.197,332.245 C543.584,330.228 537.468,327.397 533.564,325.315 C533.174,325.12 532.751,324.893 532.36,324.633 C531.612,324.21 530.962,323.851 530.441,323.526 C529.921,323.233 529.367,322.876 528.847,322.518 C528.261,322.127 527.676,321.769 527.123,321.412 C525.366,320.338 523.609,319.492 521.852,318.744 C520.876,318.353 519.9,318.028 518.957,317.67 C518.957,317.638 518.924,317.605 518.924,317.54 C518.859,317.345 518.762,317.15 518.729,316.922 C518.046,314.873 517.461,312.758 516.972,310.643 C509.327,278.599 520.941,241.577 549.375,215.29 C554.775,210.248 560.794,205.661 567.398,201.529 C578.817,194.405 592.025,188.744 606.925,185.133 C608.031,184.872 609.137,184.612 610.243,184.384 C618.344,182.66 626.282,181.847 634.025,181.847 L634.057,181.847 C639.36,181.847 644.598,182.237 649.738,182.986 C663.434,214.152 661.905,250.003 644.142,281.852" fill="#924F36"/>
    </g>
    <path d="M635.792,458.691 C576.746,458.691 553.706,427.866 544.775,402.005 C539.589,387.052 539.693,375.019 539.7,374.513 C539.7,353.38 530.976,343.335 530.887,343.236 L530.699,343.025 L530.565,342.775 C530.036,341.791 529.575,340.82 529.194,339.889 C518.063,315.965 518.938,287.051 531.639,260.668 C547.011,228.745 577.597,205.153 615.557,195.945 C624.798,193.705 634.113,192.569 643.244,192.569 C677.311,192.569 710.055,208.636 735.445,237.81 C763.89,270.539 774.604,312.792 765.615,356.781 C754.023,413.355 709.267,453.083 651.594,457.993 C646.173,458.457 640.856,458.691 635.792,458.691" fill="#924F36"/>
    <path d="M643.25,190.162 L643.246,190.162 C633.922,190.162 624.415,191.321 614.989,193.606 C576.326,202.985 545.157,227.047 529.473,259.622 C516.474,286.62 515.58,316.242 527.013,340.911 C527.416,341.887 527.898,342.899 528.447,343.918 L528.714,344.416 L529.091,344.838 C529.147,344.905 537.294,354.593 537.294,374.547 C537.287,375.002 537.178,387.446 542.503,402.798 C548.013,418.754 557.125,431.773 569.584,441.487 C586.274,454.5 608.549,461.098 635.789,461.098 C640.922,461.098 646.309,460.86 651.798,460.392 C710.561,455.389 756.163,414.91 767.973,357.267 C777.116,312.523 766.209,269.54 737.265,236.231 C711.409,206.522 678.021,190.162 643.25,190.162 M643.246,194.976 C678.261,194.975 709.626,211.807 733.631,239.389 C761.797,271.802 772.049,313.272 763.257,356.3 C751.878,411.836 707.887,450.785 651.389,455.595 C645.921,456.062 640.722,456.284 635.789,456.284 C577.223,456.284 555.282,425.056 547.051,401.22 C541.942,386.49 542.108,374.547 542.108,374.547 C542.108,352.22 532.686,341.637 532.686,341.637 C532.222,340.774 531.791,339.878 531.426,338.983 C507.971,288.556 539.952,216.763 616.123,198.285 C625.355,196.047 634.418,194.977 643.246,194.976" fill="#764D28"/>
    <path d="M551.503,394.509 C551.503,394.509 594.979,456.786 672.531,436.81 C750.083,416.835 765.358,327.533 732.458,262.906 C699.557,198.28 625.53,204.155 587.929,221.78 C550.328,239.406 519.778,294.632 538.578,338.108 C557.379,381.584 551.503,394.509 551.503,394.509" fill="#EFB981"/>
    <path d="M652.616,367.447 C644.323,386.39 627.967,400.955 607.995,406.462 C594.957,410.045 581.156,409.779 567.985,407.225 C560.255,405.699 554.35,402.713 550.137,398.301 C544.729,392.661 542.108,384.699 542.108,374.547 C542.108,371.428 541.776,368.509 541.212,365.722 C540.947,364.561 540.682,363.4 540.383,362.272 C538.492,355.206 535.506,348.736 533.947,341.106 C531.923,331.286 541.81,322.461 548.08,316.257 C558.132,306.238 571.104,299.338 585.568,299.338 C625.545,299.338 643.825,308.395 654.905,328.698 C661.242,340.309 657.593,356.101 652.616,367.447" fill="#D79361"/>
    <path d="M569.481,250.198 C560.725,257.608 548.768,273.886 553.854,284.057 C559.729,295.807 579.704,279.356 589.104,269.956 C598.505,260.556 650.206,254.681 670.181,308.732 C690.157,362.784 676.056,388.634 658.431,395.684 C640.806,402.734 629.055,412.135 632.581,421.535 C636.106,430.935 699.557,423.885 718.357,369.834 C729.319,338.319 719.286,301.557 699.807,275.529 C680.397,249.593 648.153,237.672 616.445,238.408 C602.828,238.725 583.743,240.269 572.179,248.128 C571.334,248.702 570.426,249.399 569.481,250.198" fill="#D79361"/>
    <path d="M591.64,358.291 C571.336,372.423 556.141,364.594 541.213,365.722 C540.947,364.561 540.682,363.4 540.383,362.272 C545.924,361.575 558.331,359.552 572.464,354.044 C591.64,346.58 612.971,334.836 630.024,335.897 C647.109,336.959 616.156,341.238 591.64,358.291" fill="#924F36"/>
    <path d="M222.508,413.804 C222.335,413.724 222.165,413.634 221.998,413.535 C224.4,408.197 229.253,403.385 233.231,399.139 C237.352,394.741 243.04,389.662 249.558,390.359 C264.141,391.921 252.683,405.463 240.704,409.108 C235.682,410.637 227.762,416.257 222.508,413.804" fill="#FABC44"/>
    <path d="M174.388,369.856 C174.276,369.785 174.167,369.709 174.061,369.626 C176.179,366.174 179.934,363.297 183.037,360.733 C186.252,358.076 190.603,355.09 195.016,356.142 C204.888,358.497 195.833,366.784 187.29,368.233 C183.709,368.84 177.778,372.001 174.388,369.856" fill="#FABC44"/>
  </g>
</svg>
